<?xml version="1.0" encoding="utf-8" standalone="no"?>
<!DOCTYPE svg PUBLIC "-//W3C//DTD SVG 1.1//EN"
  "http://www.w3.org/Graphics/SVG/1.1/DTD/svg11.dtd">
<svg xmlns:xlink="http://www.w3.org/1999/xlink" width="795.6pt" height="485.64pt" viewBox="0 0 795.6 485.64" xmlns="http://www.w3.org/2000/svg" version="1.1">
 <metadata>
  <rdf:RDF xmlns:dc="http://purl.org/dc/elements/1.1/" xmlns:cc="http://creativecommons.org/ns#" xmlns:rdf="http://www.w3.org/1999/02/22-rdf-syntax-ns#">
   <cc:Work>
    <dc:type rdf:resource="http://purl.org/dc/dcmitype/StillImage"/>
    <dc:date>2026-03-29T12:10:01.802391</dc:date>
    <dc:format>image/svg+xml</dc:format>
    <dc:creator>
     <cc:Agent>
      <dc:title>Matplotlib v3.10.1, https://matplotlib.org/</dc:title>
     </cc:Agent>
    </dc:creator>
   </cc:Work>
  </rdf:RDF>
 </metadata>
 <defs>
  <style type="text/css">*{stroke-linejoin: round; stroke-linecap: butt}</style>
 </defs>
 <g id="figure_1">
  <g id="patch_1">
   <path d="M 0 485.64 
L 795.6 485.64 
L 795.6 0 
L 0 0 
z
" style="fill: #ffffff"/>
  </g>
  <g id="axes_1">
   <g id="patch_2">
    <path d="M 315.774 181.5588 
L 479.826 181.5588 
Q 495.45 181.5588 495.45 172.134 
L 495.45 125.01 
Q 495.45 115.5852 479.826 115.5852 
L 315.774 115.5852 
Q 300.15 115.5852 300.15 125.01 
L 300.15 172.134 
Q 300.15 181.5588 315.774 181.5588 
z
" clip-path="url(#p2026175c4b)" style="fill: #f7f7f7; stroke: #000000; stroke-width: 1.8; stroke-linejoin: miter"/>
   </g>
   <g id="patch_3">
    <path d="M 339.21 262.8477 
L 456.39 262.8477 
Q 472.014 262.8477 472.014 253.4229 
L 472.014 213.3675 
Q 472.014 203.9427 456.39 203.9427 
L 339.21 203.9427 
Q 323.586 203.9427 323.586 213.3675 
L 323.586 253.4229 
Q 323.586 262.8477 339.21 262.8477 
z
" clip-path="url(#p2026175c4b)" style="fill: #ffffff; stroke: #000000; stroke-width: 1.8; stroke-linejoin: miter"/>
   </g>
   <g id="patch_4">
    <path d="M 120.474 116.7633 
L 237.654 116.7633 
Q 253.278 116.7633 253.278 107.3385 
L 253.278 67.2831 
Q 253.278 57.8583 237.654 57.8583 
L 120.474 57.8583 
Q 104.85 57.8583 104.85 67.2831 
L 104.85 107.3385 
Q 104.85 116.7633 120.474 116.7633 
z
" clip-path="url(#p2026175c4b)" style="fill: #fff2e8; stroke: #000000; stroke-width: 1.8; stroke-linejoin: miter"/>
   </g>
   <g id="patch_5">
    <path d="M 339.21 97.9137 
L 456.39 97.9137 
Q 472.014 97.9137 472.014 88.4889 
L 472.014 48.4335 
Q 472.014 39.0087 456.39 39.0087 
L 339.21 39.0087 
Q 323.586 39.0087 323.586 48.4335 
L 323.586 88.4889 
Q 323.586 97.9137 339.21 97.9137 
z
" clip-path="url(#p2026175c4b)" style="fill: #eaf4ff; stroke: #000000; stroke-width: 1.8; stroke-linejoin: miter"/>
   </g>
   <g id="patch_6">
    <path d="M 557.946 116.7633 
L 675.126 116.7633 
Q 690.75 116.7633 690.75 107.3385 
L 690.75 67.2831 
Q 690.75 57.8583 675.126 57.8583 
L 557.946 57.8583 
Q 542.322 57.8583 542.322 67.2831 
L 542.322 107.3385 
Q 542.322 116.7633 557.946 116.7633 
z
" clip-path="url(#p2026175c4b)" style="fill: #f4ecff; stroke: #000000; stroke-width: 1.8; stroke-linejoin: miter"/>
   </g>
   <g id="patch_7">
    <path d="M 214.218 361.8081 
L 331.398 361.8081 
Q 347.022 361.8081 347.022 352.3833 
L 347.022 312.3279 
Q 347.022 302.9031 331.398 302.9031 
L 214.218 302.9031 
Q 198.594 302.9031 198.594 312.3279 
L 198.594 352.3833 
Q 198.594 361.8081 214.218 361.8081 
z
" clip-path="url(#p2026175c4b)" style="fill: #fffdf2; stroke: #000000; stroke-width: 1.8; stroke-linejoin: miter"/>
   </g>
   <g id="patch_8">
    <path d="M 464.202 361.8081 
L 581.382 361.8081 
Q 597.006 361.8081 597.006 352.3833 
L 597.006 312.3279 
Q 597.006 302.9031 581.382 302.9031 
L 464.202 302.9031 
Q 448.578 302.9031 448.578 312.3279 
L 448.578 352.3833 
Q 448.578 361.8081 464.202 361.8081 
z
" clip-path="url(#p2026175c4b)" style="fill: #fffdf2; stroke: #000000; stroke-width: 1.8; stroke-linejoin: miter"/>
   </g>
   <g id="patch_9">
    <path d="M 104.85 452.5218 
L 253.278 452.5218 
Q 268.902 452.5218 268.902 443.097 
L 268.902 400.6854 
Q 268.902 391.2606 253.278 391.2606 
L 104.85 391.2606 
Q 89.226 391.2606 89.226 400.6854 
L 89.226 443.097 
Q 89.226 452.5218 104.85 452.5218 
z
" clip-path="url(#p2026175c4b)" style="fill: #fff8dc; stroke: #000000; stroke-width: 1.8; stroke-linejoin: miter"/>
   </g>
   <g id="patch_10">
    <path d="M 292.338 452.5218 
L 440.766 452.5218 
Q 456.39 452.5218 456.39 443.097 
L 456.39 400.6854 
Q 456.39 391.2606 440.766 391.2606 
L 292.338 391.2606 
Q 276.714 391.2606 276.714 400.6854 
L 276.714 443.097 
Q 276.714 452.5218 292.338 452.5218 
z
" clip-path="url(#p2026175c4b)" style="fill: #fff8dc; stroke: #000000; stroke-width: 1.8; stroke-linejoin: miter"/>
   </g>
   <g id="patch_11">
    <path d="M 511.074 452.5218 
L 659.502 452.5218 
Q 675.126 452.5218 675.126 443.097 
L 675.126 400.6854 
Q 675.126 391.2606 659.502 391.2606 
L 511.074 391.2606 
Q 495.45 391.2606 495.45 400.6854 
L 495.45 443.097 
Q 495.45 452.5218 511.074 452.5218 
z
" clip-path="url(#p2026175c4b)" style="fill: #fff8dc; stroke: #000000; stroke-width: 1.8; stroke-linejoin: miter"/>
   </g>
   <g id="patch_12">
    <path d="M 636.066 452.5218 
L 784.494 452.5218 
Q 800.118 452.5218 800.118 443.097 
L 800.118 400.6854 
Q 800.118 391.2606 784.494 391.2606 
L 636.066 391.2606 
Q 620.442 391.2606 620.442 400.6854 
L 620.442 443.097 
Q 620.442 452.5218 636.066 452.5218 
z
" clip-path="url(#p2026175c4b)" style="fill: #fff8dc; stroke: #000000; stroke-width: 1.8; stroke-linejoin: miter"/>
   </g>
   <g id="patch_13">
    <path d="M 220.076523 106.581047 
Q 272.805761 117.940918 323.567674 128.876952 
" clip-path="url(#p2026175c4b)" style="fill: none; stroke: #000000; stroke-width: 1.8; stroke-linecap: round"/>
    <path d="M 318.682972 124.960361 
L 323.567674 128.876952 
L 317.50358 130.434759 
z
" clip-path="url(#p2026175c4b)" style="stroke: #000000; stroke-width: 1.8; stroke-linecap: round"/>
   </g>
   <g id="patch_14">
    <path d="M 397.8 94.024474 
Q 397.8 108.516789 397.8 120.996642 
" clip-path="url(#p2026175c4b)" style="fill: none; stroke: #000000; stroke-width: 1.8; stroke-linecap: round"/>
    <path d="M 400.6 115.396642 
L 397.8 120.996642 
L 395 115.396642 
z
" clip-path="url(#p2026175c4b)" style="stroke: #000000; stroke-width: 1.8; stroke-linecap: round"/>
   </g>
   <g id="patch_15">
    <path d="M 575.523477 106.581047 
Q 522.794239 117.940918 472.032326 128.876952 
" clip-path="url(#p2026175c4b)" style="fill: none; stroke: #000000; stroke-width: 1.8; stroke-linecap: round"/>
    <path d="M 478.09642 130.434759 
L 472.032326 128.876952 
L 476.917028 124.960361 
z
" clip-path="url(#p2026175c4b)" style="stroke: #000000; stroke-width: 1.8; stroke-linecap: round"/>
   </g>
   <g id="patch_16">
    <path d="M 397.8 174.13585 
Q 397.8 190.984459 397.8 205.820607 
" clip-path="url(#p2026175c4b)" style="fill: none; stroke: #000000; stroke-width: 1.8; stroke-linecap: round"/>
    <path d="M 400.6 200.220607 
L 397.8 205.820607 
L 395 200.220607 
z
" clip-path="url(#p2026175c4b)" style="stroke: #000000; stroke-width: 1.8; stroke-linecap: round"/>
   </g>
   <g id="patch_17">
    <path d="M 364.992127 253.499407 
Q 331.39748 280.519618 299.371006 306.278546 
" clip-path="url(#p2026175c4b)" style="fill: none; stroke: #000000; stroke-width: 1.8; stroke-linecap: round"/>
    <path d="M 305.489563 304.950668 
L 299.371006 306.278546 
L 301.979839 300.586974 
z
" clip-path="url(#p2026175c4b)" style="stroke: #000000; stroke-width: 1.8; stroke-linecap: round"/>
   </g>
   <g id="patch_18">
    <path d="M 430.607873 253.499407 
Q 464.20252 280.519618 496.228994 306.278546 
" clip-path="url(#p2026175c4b)" style="fill: none; stroke: #000000; stroke-width: 1.8; stroke-linecap: round"/>
    <path d="M 493.620161 300.586974 
L 496.228994 306.278546 
L 490.110437 304.950668 
z
" clip-path="url(#p2026175c4b)" style="stroke: #000000; stroke-width: 1.8; stroke-linecap: round"/>
   </g>
   <g id="patch_19">
    <path d="M 247.793293 357.142007 
Q 222.029901 377.123477 197.856744 395.871598 
" clip-path="url(#p2026175c4b)" style="fill: none; stroke: #000000; stroke-width: 1.8; stroke-linecap: round"/>
    <path d="M 203.997831 394.652149 
L 197.856744 395.871598 
L 200.565837 390.227059 
z
" clip-path="url(#p2026175c4b)" style="stroke: #000000; stroke-width: 1.8; stroke-linecap: round"/>
   </g>
   <g id="patch_20">
    <path d="M 290.010707 357.142007 
Q 315.774099 377.123477 339.947256 395.871598 
" clip-path="url(#p2026175c4b)" style="fill: none; stroke: #000000; stroke-width: 1.8; stroke-linecap: round"/>
    <path d="M 337.238163 390.227059 
L 339.947256 395.871598 
L 333.806169 394.652149 
z
" clip-path="url(#p2026175c4b)" style="stroke: #000000; stroke-width: 1.8; stroke-linecap: round"/>
   </g>
   <g id="patch_21">
    <path d="M 298.195685 360.1804 
Q 483.477184 317.822529 652.303793 401.40794 
" clip-path="url(#p2026175c4b)" style="fill: none; stroke-dasharray: 5.55,2.4; stroke-dashoffset: 0; stroke: #000000; stroke-width: 1.5; stroke-linecap: round"/>
    <path d="M 648.527539 396.413952 
L 652.303793 401.40794 
L 646.042851 401.43255 
z
" clip-path="url(#p2026175c4b)" style="stroke-dasharray: 5.55,2.4; stroke-dashoffset: 0; stroke: #000000; stroke-width: 1.5; stroke-linecap: round"/>
   </g>
   <g id="patch_22">
    <path d="M 524.370707 357.142007 
Q 550.134099 377.123477 574.307256 395.871598 
" clip-path="url(#p2026175c4b)" style="fill: none; stroke: #000000; stroke-width: 1.8; stroke-linecap: round"/>
    <path d="M 571.598163 390.227059 
L 574.307256 395.871598 
L 568.166169 394.652149 
z
" clip-path="url(#p2026175c4b)" style="stroke: #000000; stroke-width: 1.8; stroke-linecap: round"/>
   </g>
   <g id="text_1">
    <!-- Pressure–Control–Chaos System Dynamics and Derived Observables -->
    <g transform="translate(52.68375 37.370587) scale(0.18 -0.18)">
     <defs>
      <path id="DejaVuSans-Bold-50" d="M 588 4666 
L 2584 4666 
Q 3475 4666 3951 4270 
Q 4428 3875 4428 3144 
Q 4428 2409 3951 2014 
Q 3475 1619 2584 1619 
L 1791 1619 
L 1791 0 
L 588 0 
L 588 4666 
z
M 1791 3794 
L 1791 2491 
L 2456 2491 
Q 2806 2491 2997 2661 
Q 3188 2831 3188 3144 
Q 3188 3456 2997 3625 
Q 2806 3794 2456 3794 
L 1791 3794 
z
" transform="scale(0.015625)"/>
      <path id="DejaVuSans-Bold-72" d="M 3138 2547 
Q 2991 2616 2845 2648 
Q 2700 2681 2553 2681 
Q 2122 2681 1889 2404 
Q 1656 2128 1656 1613 
L 1656 0 
L 538 0 
L 538 3500 
L 1656 3500 
L 1656 2925 
Q 1872 3269 2151 3426 
Q 2431 3584 2822 3584 
Q 2878 3584 2943 3579 
Q 3009 3575 3134 3559 
L 3138 2547 
z
" transform="scale(0.015625)"/>
      <path id="DejaVuSans-Bold-65" d="M 4031 1759 
L 4031 1441 
L 1416 1441 
Q 1456 1047 1700 850 
Q 1944 653 2381 653 
Q 2734 653 3104 758 
Q 3475 863 3866 1075 
L 3866 213 
Q 3469 63 3072 -14 
Q 2675 -91 2278 -91 
Q 1328 -91 801 392 
Q 275 875 275 1747 
Q 275 2603 792 3093 
Q 1309 3584 2216 3584 
Q 3041 3584 3536 3087 
Q 4031 2591 4031 1759 
z
M 2881 2131 
Q 2881 2450 2695 2645 
Q 2509 2841 2209 2841 
Q 1884 2841 1681 2658 
Q 1478 2475 1428 2131 
L 2881 2131 
z
" transform="scale(0.015625)"/>
      <path id="DejaVuSans-Bold-73" d="M 3272 3391 
L 3272 2541 
Q 2913 2691 2578 2766 
Q 2244 2841 1947 2841 
Q 1628 2841 1473 2761 
Q 1319 2681 1319 2516 
Q 1319 2381 1436 2309 
Q 1553 2238 1856 2203 
L 2053 2175 
Q 2913 2066 3209 1816 
Q 3506 1566 3506 1031 
Q 3506 472 3093 190 
Q 2681 -91 1863 -91 
Q 1516 -91 1145 -36 
Q 775 19 384 128 
L 384 978 
Q 719 816 1070 734 
Q 1422 653 1784 653 
Q 2113 653 2278 743 
Q 2444 834 2444 1013 
Q 2444 1163 2330 1236 
Q 2216 1309 1875 1350 
L 1678 1375 
Q 931 1469 631 1722 
Q 331 1975 331 2491 
Q 331 3047 712 3315 
Q 1094 3584 1881 3584 
Q 2191 3584 2531 3537 
Q 2872 3491 3272 3391 
z
" transform="scale(0.015625)"/>
      <path id="DejaVuSans-Bold-75" d="M 500 1363 
L 500 3500 
L 1625 3500 
L 1625 3150 
Q 1625 2866 1622 2436 
Q 1619 2006 1619 1863 
Q 1619 1441 1641 1255 
Q 1663 1069 1716 984 
Q 1784 875 1895 815 
Q 2006 756 2150 756 
Q 2500 756 2700 1025 
Q 2900 1294 2900 1772 
L 2900 3500 
L 4019 3500 
L 4019 0 
L 2900 0 
L 2900 506 
Q 2647 200 2364 54 
Q 2081 -91 1741 -91 
Q 1134 -91 817 281 
Q 500 653 500 1363 
z
" transform="scale(0.015625)"/>
      <path id="DejaVuSans-Bold-2013" d="M 344 2156 
L 2856 2156 
L 2856 1350 
L 344 1350 
L 344 2156 
z
" transform="scale(0.015625)"/>
      <path id="DejaVuSans-Bold-43" d="M 4288 256 
Q 3956 84 3597 -3 
Q 3238 -91 2847 -91 
Q 1681 -91 1000 561 
Q 319 1213 319 2328 
Q 319 3447 1000 4098 
Q 1681 4750 2847 4750 
Q 3238 4750 3597 4662 
Q 3956 4575 4288 4403 
L 4288 3438 
Q 3953 3666 3628 3772 
Q 3303 3878 2944 3878 
Q 2300 3878 1931 3465 
Q 1563 3053 1563 2328 
Q 1563 1606 1931 1193 
Q 2300 781 2944 781 
Q 3303 781 3628 887 
Q 3953 994 4288 1222 
L 4288 256 
z
" transform="scale(0.015625)"/>
      <path id="DejaVuSans-Bold-6f" d="M 2203 2784 
Q 1831 2784 1636 2517 
Q 1441 2250 1441 1747 
Q 1441 1244 1636 976 
Q 1831 709 2203 709 
Q 2569 709 2762 976 
Q 2956 1244 2956 1747 
Q 2956 2250 2762 2517 
Q 2569 2784 2203 2784 
z
M 2203 3584 
Q 3106 3584 3614 3096 
Q 4122 2609 4122 1747 
Q 4122 884 3614 396 
Q 3106 -91 2203 -91 
Q 1297 -91 786 396 
Q 275 884 275 1747 
Q 275 2609 786 3096 
Q 1297 3584 2203 3584 
z
" transform="scale(0.015625)"/>
      <path id="DejaVuSans-Bold-6e" d="M 4056 2131 
L 4056 0 
L 2931 0 
L 2931 347 
L 2931 1631 
Q 2931 2084 2911 2256 
Q 2891 2428 2841 2509 
Q 2775 2619 2662 2680 
Q 2550 2741 2406 2741 
Q 2056 2741 1856 2470 
Q 1656 2200 1656 1722 
L 1656 0 
L 538 0 
L 538 3500 
L 1656 3500 
L 1656 2988 
Q 1909 3294 2193 3439 
Q 2478 3584 2822 3584 
Q 3428 3584 3742 3212 
Q 4056 2841 4056 2131 
z
" transform="scale(0.015625)"/>
      <path id="DejaVuSans-Bold-74" d="M 1759 4494 
L 1759 3500 
L 2913 3500 
L 2913 2700 
L 1759 2700 
L 1759 1216 
Q 1759 972 1856 886 
Q 1953 800 2241 800 
L 2816 800 
L 2816 0 
L 1856 0 
Q 1194 0 917 276 
Q 641 553 641 1216 
L 641 2700 
L 84 2700 
L 84 3500 
L 641 3500 
L 641 4494 
L 1759 4494 
z
" transform="scale(0.015625)"/>
      <path id="DejaVuSans-Bold-6c" d="M 538 4863 
L 1656 4863 
L 1656 0 
L 538 0 
L 538 4863 
z
" transform="scale(0.015625)"/>
      <path id="DejaVuSans-Bold-68" d="M 4056 2131 
L 4056 0 
L 2931 0 
L 2931 347 
L 2931 1625 
Q 2931 2084 2911 2256 
Q 2891 2428 2841 2509 
Q 2775 2619 2662 2680 
Q 2550 2741 2406 2741 
Q 2056 2741 1856 2470 
Q 1656 2200 1656 1722 
L 1656 0 
L 538 0 
L 538 4863 
L 1656 4863 
L 1656 2988 
Q 1909 3294 2193 3439 
Q 2478 3584 2822 3584 
Q 3428 3584 3742 3212 
Q 4056 2841 4056 2131 
z
" transform="scale(0.015625)"/>
      <path id="DejaVuSans-Bold-61" d="M 2106 1575 
Q 1756 1575 1579 1456 
Q 1403 1338 1403 1106 
Q 1403 894 1545 773 
Q 1688 653 1941 653 
Q 2256 653 2472 879 
Q 2688 1106 2688 1447 
L 2688 1575 
L 2106 1575 
z
M 3816 1997 
L 3816 0 
L 2688 0 
L 2688 519 
Q 2463 200 2181 54 
Q 1900 -91 1497 -91 
Q 953 -91 614 226 
Q 275 544 275 1050 
Q 275 1666 698 1953 
Q 1122 2241 2028 2241 
L 2688 2241 
L 2688 2328 
Q 2688 2594 2478 2717 
Q 2269 2841 1825 2841 
Q 1466 2841 1156 2769 
Q 847 2697 581 2553 
L 581 3406 
Q 941 3494 1303 3539 
Q 1666 3584 2028 3584 
Q 2975 3584 3395 3211 
Q 3816 2838 3816 1997 
z
" transform="scale(0.015625)"/>
      <path id="DejaVuSans-Bold-20" transform="scale(0.015625)"/>
      <path id="DejaVuSans-Bold-53" d="M 3834 4519 
L 3834 3531 
Q 3450 3703 3084 3790 
Q 2719 3878 2394 3878 
Q 1963 3878 1756 3759 
Q 1550 3641 1550 3391 
Q 1550 3203 1689 3098 
Q 1828 2994 2194 2919 
L 2706 2816 
Q 3484 2659 3812 2340 
Q 4141 2022 4141 1434 
Q 4141 663 3683 286 
Q 3225 -91 2284 -91 
Q 1841 -91 1394 -6 
Q 947 78 500 244 
L 500 1259 
Q 947 1022 1364 901 
Q 1781 781 2169 781 
Q 2563 781 2772 912 
Q 2981 1044 2981 1288 
Q 2981 1506 2839 1625 
Q 2697 1744 2272 1838 
L 1806 1941 
Q 1106 2091 782 2419 
Q 459 2747 459 3303 
Q 459 4000 909 4375 
Q 1359 4750 2203 4750 
Q 2588 4750 2994 4692 
Q 3400 4634 3834 4519 
z
" transform="scale(0.015625)"/>
      <path id="DejaVuSans-Bold-79" d="M 78 3500 
L 1197 3500 
L 2138 1125 
L 2938 3500 
L 4056 3500 
L 2584 -331 
Q 2363 -916 2067 -1148 
Q 1772 -1381 1288 -1381 
L 641 -1381 
L 641 -647 
L 991 -647 
Q 1275 -647 1404 -556 
Q 1534 -466 1606 -231 
L 1638 -134 
L 78 3500 
z
" transform="scale(0.015625)"/>
      <path id="DejaVuSans-Bold-6d" d="M 3781 2919 
Q 3994 3244 4286 3414 
Q 4578 3584 4928 3584 
Q 5531 3584 5847 3212 
Q 6163 2841 6163 2131 
L 6163 0 
L 5038 0 
L 5038 1825 
Q 5041 1866 5042 1909 
Q 5044 1953 5044 2034 
Q 5044 2406 4934 2573 
Q 4825 2741 4581 2741 
Q 4263 2741 4089 2478 
Q 3916 2216 3909 1719 
L 3909 0 
L 2784 0 
L 2784 1825 
Q 2784 2406 2684 2573 
Q 2584 2741 2328 2741 
Q 2006 2741 1831 2477 
Q 1656 2213 1656 1722 
L 1656 0 
L 531 0 
L 531 3500 
L 1656 3500 
L 1656 2988 
Q 1863 3284 2130 3434 
Q 2397 3584 2719 3584 
Q 3081 3584 3359 3409 
Q 3638 3234 3781 2919 
z
" transform="scale(0.015625)"/>
      <path id="DejaVuSans-Bold-44" d="M 1791 3756 
L 1791 909 
L 2222 909 
Q 2959 909 3348 1275 
Q 3738 1641 3738 2338 
Q 3738 3031 3350 3393 
Q 2963 3756 2222 3756 
L 1791 3756 
z
M 588 4666 
L 1856 4666 
Q 2919 4666 3439 4514 
Q 3959 4363 4331 4000 
Q 4659 3684 4818 3271 
Q 4978 2859 4978 2338 
Q 4978 1809 4818 1395 
Q 4659 981 4331 666 
Q 3956 303 3431 151 
Q 2906 0 1856 0 
L 588 0 
L 588 4666 
z
" transform="scale(0.015625)"/>
      <path id="DejaVuSans-Bold-69" d="M 538 3500 
L 1656 3500 
L 1656 0 
L 538 0 
L 538 3500 
z
M 538 4863 
L 1656 4863 
L 1656 3950 
L 538 3950 
L 538 4863 
z
" transform="scale(0.015625)"/>
      <path id="DejaVuSans-Bold-63" d="M 3366 3391 
L 3366 2478 
Q 3138 2634 2908 2709 
Q 2678 2784 2431 2784 
Q 1963 2784 1702 2511 
Q 1441 2238 1441 1747 
Q 1441 1256 1702 982 
Q 1963 709 2431 709 
Q 2694 709 2930 787 
Q 3166 866 3366 1019 
L 3366 103 
Q 3103 6 2833 -42 
Q 2563 -91 2291 -91 
Q 1344 -91 809 395 
Q 275 881 275 1747 
Q 275 2613 809 3098 
Q 1344 3584 2291 3584 
Q 2566 3584 2833 3536 
Q 3100 3488 3366 3391 
z
" transform="scale(0.015625)"/>
      <path id="DejaVuSans-Bold-64" d="M 2919 2988 
L 2919 4863 
L 4044 4863 
L 4044 0 
L 2919 0 
L 2919 506 
Q 2688 197 2409 53 
Q 2131 -91 1766 -91 
Q 1119 -91 703 423 
Q 288 938 288 1747 
Q 288 2556 703 3070 
Q 1119 3584 1766 3584 
Q 2128 3584 2408 3439 
Q 2688 3294 2919 2988 
z
M 2181 722 
Q 2541 722 2730 984 
Q 2919 1247 2919 1747 
Q 2919 2247 2730 2509 
Q 2541 2772 2181 2772 
Q 1825 2772 1636 2509 
Q 1447 2247 1447 1747 
Q 1447 1247 1636 984 
Q 1825 722 2181 722 
z
" transform="scale(0.015625)"/>
      <path id="DejaVuSans-Bold-76" d="M 97 3500 
L 1216 3500 
L 2088 1081 
L 2956 3500 
L 4078 3500 
L 2700 0 
L 1472 0 
L 97 3500 
z
" transform="scale(0.015625)"/>
      <path id="DejaVuSans-Bold-4f" d="M 2719 3878 
Q 2169 3878 1866 3472 
Q 1563 3066 1563 2328 
Q 1563 1594 1866 1187 
Q 2169 781 2719 781 
Q 3272 781 3575 1187 
Q 3878 1594 3878 2328 
Q 3878 3066 3575 3472 
Q 3272 3878 2719 3878 
z
M 2719 4750 
Q 3844 4750 4481 4106 
Q 5119 3463 5119 2328 
Q 5119 1197 4481 553 
Q 3844 -91 2719 -91 
Q 1597 -91 958 553 
Q 319 1197 319 2328 
Q 319 3463 958 4106 
Q 1597 4750 2719 4750 
z
" transform="scale(0.015625)"/>
      <path id="DejaVuSans-Bold-62" d="M 2400 722 
Q 2759 722 2948 984 
Q 3138 1247 3138 1747 
Q 3138 2247 2948 2509 
Q 2759 2772 2400 2772 
Q 2041 2772 1848 2508 
Q 1656 2244 1656 1747 
Q 1656 1250 1848 986 
Q 2041 722 2400 722 
z
M 1656 2988 
Q 1888 3294 2169 3439 
Q 2450 3584 2816 3584 
Q 3463 3584 3878 3070 
Q 4294 2556 4294 1747 
Q 4294 938 3878 423 
Q 3463 -91 2816 -91 
Q 2450 -91 2169 54 
Q 1888 200 1656 506 
L 1656 0 
L 538 0 
L 538 4863 
L 1656 4863 
L 1656 2988 
z
" transform="scale(0.015625)"/>
     </defs>
     <use xlink:href="#DejaVuSans-Bold-50"/>
     <use xlink:href="#DejaVuSans-Bold-72" transform="translate(73.291016 0)"/>
     <use xlink:href="#DejaVuSans-Bold-65" transform="translate(122.607422 0)"/>
     <use xlink:href="#DejaVuSans-Bold-73" transform="translate(190.429688 0)"/>
     <use xlink:href="#DejaVuSans-Bold-73" transform="translate(249.951172 0)"/>
     <use xlink:href="#DejaVuSans-Bold-75" transform="translate(309.472656 0)"/>
     <use xlink:href="#DejaVuSans-Bold-72" transform="translate(380.664062 0)"/>
     <use xlink:href="#DejaVuSans-Bold-65" transform="translate(429.980469 0)"/>
     <use xlink:href="#DejaVuSans-Bold-2013" transform="translate(497.802734 0)"/>
     <use xlink:href="#DejaVuSans-Bold-43" transform="translate(547.802734 0)"/>
     <use xlink:href="#DejaVuSans-Bold-6f" transform="translate(621.191406 0)"/>
     <use xlink:href="#DejaVuSans-Bold-6e" transform="translate(689.892578 0)"/>
     <use xlink:href="#DejaVuSans-Bold-74" transform="translate(761.083984 0)"/>
     <use xlink:href="#DejaVuSans-Bold-72" transform="translate(808.886719 0)"/>
     <use xlink:href="#DejaVuSans-Bold-6f" transform="translate(858.203125 0)"/>
     <use xlink:href="#DejaVuSans-Bold-6c" transform="translate(926.904297 0)"/>
     <use xlink:href="#DejaVuSans-Bold-2013" transform="translate(961.181641 0)"/>
     <use xlink:href="#DejaVuSans-Bold-43" transform="translate(1011.181641 0)"/>
     <use xlink:href="#DejaVuSans-Bold-68" transform="translate(1084.570312 0)"/>
     <use xlink:href="#DejaVuSans-Bold-61" transform="translate(1155.761719 0)"/>
     <use xlink:href="#DejaVuSans-Bold-6f" transform="translate(1223.242188 0)"/>
     <use xlink:href="#DejaVuSans-Bold-73" transform="translate(1291.943359 0)"/>
     <use xlink:href="#DejaVuSans-Bold-20" transform="translate(1351.464844 0)"/>
     <use xlink:href="#DejaVuSans-Bold-53" transform="translate(1386.279297 0)"/>
     <use xlink:href="#DejaVuSans-Bold-79" transform="translate(1458.300781 0)"/>
     <use xlink:href="#DejaVuSans-Bold-73" transform="translate(1523.486328 0)"/>
     <use xlink:href="#DejaVuSans-Bold-74" transform="translate(1583.007812 0)"/>
     <use xlink:href="#DejaVuSans-Bold-65" transform="translate(1630.810547 0)"/>
     <use xlink:href="#DejaVuSans-Bold-6d" transform="translate(1698.632812 0)"/>
     <use xlink:href="#DejaVuSans-Bold-20" transform="translate(1802.832031 0)"/>
     <use xlink:href="#DejaVuSans-Bold-44" transform="translate(1837.646484 0)"/>
     <use xlink:href="#DejaVuSans-Bold-79" transform="translate(1920.654297 0)"/>
     <use xlink:href="#DejaVuSans-Bold-6e" transform="translate(1985.839844 0)"/>
     <use xlink:href="#DejaVuSans-Bold-61" transform="translate(2057.03125 0)"/>
     <use xlink:href="#DejaVuSans-Bold-6d" transform="translate(2124.511719 0)"/>
     <use xlink:href="#DejaVuSans-Bold-69" transform="translate(2228.710938 0)"/>
     <use xlink:href="#DejaVuSans-Bold-63" transform="translate(2262.988281 0)"/>
     <use xlink:href="#DejaVuSans-Bold-73" transform="translate(2322.265625 0)"/>
     <use xlink:href="#DejaVuSans-Bold-20" transform="translate(2381.787109 0)"/>
     <use xlink:href="#DejaVuSans-Bold-61" transform="translate(2416.601562 0)"/>
     <use xlink:href="#DejaVuSans-Bold-6e" transform="translate(2484.082031 0)"/>
     <use xlink:href="#DejaVuSans-Bold-64" transform="translate(2555.273438 0)"/>
     <use xlink:href="#DejaVuSans-Bold-20" transform="translate(2626.855469 0)"/>
     <use xlink:href="#DejaVuSans-Bold-44" transform="translate(2661.669922 0)"/>
     <use xlink:href="#DejaVuSans-Bold-65" transform="translate(2744.677734 0)"/>
     <use xlink:href="#DejaVuSans-Bold-72" transform="translate(2812.5 0)"/>
     <use xlink:href="#DejaVuSans-Bold-69" transform="translate(2861.816406 0)"/>
     <use xlink:href="#DejaVuSans-Bold-76" transform="translate(2896.09375 0)"/>
     <use xlink:href="#DejaVuSans-Bold-65" transform="translate(2961.279297 0)"/>
     <use xlink:href="#DejaVuSans-Bold-64" transform="translate(3029.101562 0)"/>
     <use xlink:href="#DejaVuSans-Bold-20" transform="translate(3100.683594 0)"/>
     <use xlink:href="#DejaVuSans-Bold-4f" transform="translate(3135.498047 0)"/>
     <use xlink:href="#DejaVuSans-Bold-62" transform="translate(3220.507812 0)"/>
     <use xlink:href="#DejaVuSans-Bold-73" transform="translate(3292.089844 0)"/>
     <use xlink:href="#DejaVuSans-Bold-65" transform="translate(3351.611328 0)"/>
     <use xlink:href="#DejaVuSans-Bold-72" transform="translate(3419.433594 0)"/>
     <use xlink:href="#DejaVuSans-Bold-76" transform="translate(3468.75 0)"/>
     <use xlink:href="#DejaVuSans-Bold-61" transform="translate(3533.935547 0)"/>
     <use xlink:href="#DejaVuSans-Bold-62" transform="translate(3601.416016 0)"/>
     <use xlink:href="#DejaVuSans-Bold-6c" transform="translate(3672.998047 0)"/>
     <use xlink:href="#DejaVuSans-Bold-65" transform="translate(3707.275391 0)"/>
     <use xlink:href="#DejaVuSans-Bold-73" transform="translate(3775.097656 0)"/>
    </g>
   </g>
   <g id="text_2">
    <!-- PCC Update Rule -->
    <g transform="translate(347.198438 145.164562) scale(0.12 -0.12)">
     <defs>
      <path id="DejaVuSans-50" d="M 1259 4147 
L 1259 2394 
L 2053 2394 
Q 2494 2394 2734 2622 
Q 2975 2850 2975 3272 
Q 2975 3691 2734 3919 
Q 2494 4147 2053 4147 
L 1259 4147 
z
M 628 4666 
L 2053 4666 
Q 2838 4666 3239 4311 
Q 3641 3956 3641 3272 
Q 3641 2581 3239 2228 
Q 2838 1875 2053 1875 
L 1259 1875 
L 1259 0 
L 628 0 
L 628 4666 
z
" transform="scale(0.015625)"/>
      <path id="DejaVuSans-43" d="M 4122 4306 
L 4122 3641 
Q 3803 3938 3442 4084 
Q 3081 4231 2675 4231 
Q 1875 4231 1450 3742 
Q 1025 3253 1025 2328 
Q 1025 1406 1450 917 
Q 1875 428 2675 428 
Q 3081 428 3442 575 
Q 3803 722 4122 1019 
L 4122 359 
Q 3791 134 3420 21 
Q 3050 -91 2638 -91 
Q 1578 -91 968 557 
Q 359 1206 359 2328 
Q 359 3453 968 4101 
Q 1578 4750 2638 4750 
Q 3056 4750 3426 4639 
Q 3797 4528 4122 4306 
z
" transform="scale(0.015625)"/>
      <path id="DejaVuSans-20" transform="scale(0.015625)"/>
      <path id="DejaVuSans-55" d="M 556 4666 
L 1191 4666 
L 1191 1831 
Q 1191 1081 1462 751 
Q 1734 422 2344 422 
Q 2950 422 3222 751 
Q 3494 1081 3494 1831 
L 3494 4666 
L 4128 4666 
L 4128 1753 
Q 4128 841 3676 375 
Q 3225 -91 2344 -91 
Q 1459 -91 1007 375 
Q 556 841 556 1753 
L 556 4666 
z
" transform="scale(0.015625)"/>
      <path id="DejaVuSans-70" d="M 1159 525 
L 1159 -1331 
L 581 -1331 
L 581 3500 
L 1159 3500 
L 1159 2969 
Q 1341 3281 1617 3432 
Q 1894 3584 2278 3584 
Q 2916 3584 3314 3078 
Q 3713 2572 3713 1747 
Q 3713 922 3314 415 
Q 2916 -91 2278 -91 
Q 1894 -91 1617 61 
Q 1341 213 1159 525 
z
M 3116 1747 
Q 3116 2381 2855 2742 
Q 2594 3103 2138 3103 
Q 1681 3103 1420 2742 
Q 1159 2381 1159 1747 
Q 1159 1113 1420 752 
Q 1681 391 2138 391 
Q 2594 391 2855 752 
Q 3116 1113 3116 1747 
z
" transform="scale(0.015625)"/>
      <path id="DejaVuSans-64" d="M 2906 2969 
L 2906 4863 
L 3481 4863 
L 3481 0 
L 2906 0 
L 2906 525 
Q 2725 213 2448 61 
Q 2172 -91 1784 -91 
Q 1150 -91 751 415 
Q 353 922 353 1747 
Q 353 2572 751 3078 
Q 1150 3584 1784 3584 
Q 2172 3584 2448 3432 
Q 2725 3281 2906 2969 
z
M 947 1747 
Q 947 1113 1208 752 
Q 1469 391 1925 391 
Q 2381 391 2643 752 
Q 2906 1113 2906 1747 
Q 2906 2381 2643 2742 
Q 2381 3103 1925 3103 
Q 1469 3103 1208 2742 
Q 947 2381 947 1747 
z
" transform="scale(0.015625)"/>
      <path id="DejaVuSans-61" d="M 2194 1759 
Q 1497 1759 1228 1600 
Q 959 1441 959 1056 
Q 959 750 1161 570 
Q 1363 391 1709 391 
Q 2188 391 2477 730 
Q 2766 1069 2766 1631 
L 2766 1759 
L 2194 1759 
z
M 3341 1997 
L 3341 0 
L 2766 0 
L 2766 531 
Q 2569 213 2275 61 
Q 1981 -91 1556 -91 
Q 1019 -91 701 211 
Q 384 513 384 1019 
Q 384 1609 779 1909 
Q 1175 2209 1959 2209 
L 2766 2209 
L 2766 2266 
Q 2766 2663 2505 2880 
Q 2244 3097 1772 3097 
Q 1472 3097 1187 3025 
Q 903 2953 641 2809 
L 641 3341 
Q 956 3463 1253 3523 
Q 1550 3584 1831 3584 
Q 2591 3584 2966 3190 
Q 3341 2797 3341 1997 
z
" transform="scale(0.015625)"/>
      <path id="DejaVuSans-74" d="M 1172 4494 
L 1172 3500 
L 2356 3500 
L 2356 3053 
L 1172 3053 
L 1172 1153 
Q 1172 725 1289 603 
Q 1406 481 1766 481 
L 2356 481 
L 2356 0 
L 1766 0 
Q 1100 0 847 248 
Q 594 497 594 1153 
L 594 3053 
L 172 3053 
L 172 3500 
L 594 3500 
L 594 4494 
L 1172 4494 
z
" transform="scale(0.015625)"/>
      <path id="DejaVuSans-65" d="M 3597 1894 
L 3597 1613 
L 953 1613 
Q 991 1019 1311 708 
Q 1631 397 2203 397 
Q 2534 397 2845 478 
Q 3156 559 3463 722 
L 3463 178 
Q 3153 47 2828 -22 
Q 2503 -91 2169 -91 
Q 1331 -91 842 396 
Q 353 884 353 1716 
Q 353 2575 817 3079 
Q 1281 3584 2069 3584 
Q 2775 3584 3186 3129 
Q 3597 2675 3597 1894 
z
M 3022 2063 
Q 3016 2534 2758 2815 
Q 2500 3097 2075 3097 
Q 1594 3097 1305 2825 
Q 1016 2553 972 2059 
L 3022 2063 
z
" transform="scale(0.015625)"/>
      <path id="DejaVuSans-52" d="M 2841 2188 
Q 3044 2119 3236 1894 
Q 3428 1669 3622 1275 
L 4263 0 
L 3584 0 
L 2988 1197 
Q 2756 1666 2539 1819 
Q 2322 1972 1947 1972 
L 1259 1972 
L 1259 0 
L 628 0 
L 628 4666 
L 2053 4666 
Q 2853 4666 3247 4331 
Q 3641 3997 3641 3322 
Q 3641 2881 3436 2590 
Q 3231 2300 2841 2188 
z
M 1259 4147 
L 1259 2491 
L 2053 2491 
Q 2509 2491 2742 2702 
Q 2975 2913 2975 3322 
Q 2975 3731 2742 3939 
Q 2509 4147 2053 4147 
L 1259 4147 
z
" transform="scale(0.015625)"/>
      <path id="DejaVuSans-75" d="M 544 1381 
L 544 3500 
L 1119 3500 
L 1119 1403 
Q 1119 906 1312 657 
Q 1506 409 1894 409 
Q 2359 409 2629 706 
Q 2900 1003 2900 1516 
L 2900 3500 
L 3475 3500 
L 3475 0 
L 2900 0 
L 2900 538 
Q 2691 219 2414 64 
Q 2138 -91 1772 -91 
Q 1169 -91 856 284 
Q 544 659 544 1381 
z
M 1991 3584 
L 1991 3584 
z
" transform="scale(0.015625)"/>
      <path id="DejaVuSans-6c" d="M 603 4863 
L 1178 4863 
L 1178 0 
L 603 0 
L 603 4863 
z
" transform="scale(0.015625)"/>
     </defs>
     <use xlink:href="#DejaVuSans-50"/>
     <use xlink:href="#DejaVuSans-43" transform="translate(60.302734 0)"/>
     <use xlink:href="#DejaVuSans-43" transform="translate(130.126953 0)"/>
     <use xlink:href="#DejaVuSans-20" transform="translate(199.951172 0)"/>
     <use xlink:href="#DejaVuSans-55" transform="translate(231.738281 0)"/>
     <use xlink:href="#DejaVuSans-70" transform="translate(304.931641 0)"/>
     <use xlink:href="#DejaVuSans-64" transform="translate(368.408203 0)"/>
     <use xlink:href="#DejaVuSans-61" transform="translate(431.884766 0)"/>
     <use xlink:href="#DejaVuSans-74" transform="translate(493.164062 0)"/>
     <use xlink:href="#DejaVuSans-65" transform="translate(532.373047 0)"/>
     <use xlink:href="#DejaVuSans-20" transform="translate(593.896484 0)"/>
     <use xlink:href="#DejaVuSans-52" transform="translate(625.683594 0)"/>
     <use xlink:href="#DejaVuSans-75" transform="translate(690.666016 0)"/>
     <use xlink:href="#DejaVuSans-6c" transform="translate(754.044922 0)"/>
     <use xlink:href="#DejaVuSans-65" transform="translate(781.828125 0)"/>
    </g>
    <!-- $\mathbf{x}_{t+1} = F(\mathbf{x}_t; P, C, K)$ -->
    <g transform="translate(341.88 158.601937) scale(0.12 -0.12)">
     <defs>
      <path id="DejaVuSans-Bold-78" d="M 1422 1791 
L 159 3500 
L 1344 3500 
L 2059 2463 
L 2784 3500 
L 3969 3500 
L 2706 1797 
L 4031 0 
L 2847 0 
L 2059 1106 
L 1281 0 
L 97 0 
L 1422 1791 
z
" transform="scale(0.015625)"/>
      <path id="DejaVuSans-Oblique-74" d="M 2706 3500 
L 2619 3053 
L 1472 3053 
L 1100 1153 
Q 1081 1047 1072 975 
Q 1063 903 1063 863 
Q 1063 663 1183 572 
Q 1303 481 1569 481 
L 2150 481 
L 2053 0 
L 1503 0 
Q 991 0 739 200 
Q 488 400 488 806 
Q 488 878 497 964 
Q 506 1050 525 1153 
L 897 3053 
L 409 3053 
L 500 3500 
L 978 3500 
L 1172 4494 
L 1747 4494 
L 1556 3500 
L 2706 3500 
z
" transform="scale(0.015625)"/>
      <path id="DejaVuSans-2b" d="M 2944 4013 
L 2944 2272 
L 4684 2272 
L 4684 1741 
L 2944 1741 
L 2944 0 
L 2419 0 
L 2419 1741 
L 678 1741 
L 678 2272 
L 2419 2272 
L 2419 4013 
L 2944 4013 
z
" transform="scale(0.015625)"/>
      <path id="DejaVuSans-31" d="M 794 531 
L 1825 531 
L 1825 4091 
L 703 3866 
L 703 4441 
L 1819 4666 
L 2450 4666 
L 2450 531 
L 3481 531 
L 3481 0 
L 794 0 
L 794 531 
z
" transform="scale(0.015625)"/>
      <path id="DejaVuSans-3d" d="M 678 2906 
L 4684 2906 
L 4684 2381 
L 678 2381 
L 678 2906 
z
M 678 1631 
L 4684 1631 
L 4684 1100 
L 678 1100 
L 678 1631 
z
" transform="scale(0.015625)"/>
      <path id="DejaVuSans-Oblique-46" d="M 1081 4666 
L 3756 4666 
L 3653 4134 
L 1606 4134 
L 1338 2759 
L 3188 2759 
L 3084 2228 
L 1234 2228 
L 800 0 
L 172 0 
L 1081 4666 
z
" transform="scale(0.015625)"/>
      <path id="DejaVuSans-28" d="M 1984 4856 
Q 1566 4138 1362 3434 
Q 1159 2731 1159 2009 
Q 1159 1288 1364 580 
Q 1569 -128 1984 -844 
L 1484 -844 
Q 1016 -109 783 600 
Q 550 1309 550 2009 
Q 550 2706 781 3412 
Q 1013 4119 1484 4856 
L 1984 4856 
z
" transform="scale(0.015625)"/>
      <path id="DejaVuSans-3b" d="M 750 3309 
L 1409 3309 
L 1409 2516 
L 750 2516 
L 750 3309 
z
M 750 794 
L 1409 794 
L 1409 256 
L 897 -744 
L 494 -744 
L 750 256 
L 750 794 
z
" transform="scale(0.015625)"/>
      <path id="DejaVuSans-Oblique-50" d="M 1081 4666 
L 2541 4666 
Q 3178 4666 3512 4369 
Q 3847 4072 3847 3500 
Q 3847 2731 3353 2303 
Q 2859 1875 1966 1875 
L 1172 1875 
L 806 0 
L 172 0 
L 1081 4666 
z
M 1613 4147 
L 1275 2394 
L 2069 2394 
Q 2606 2394 2893 2669 
Q 3181 2944 3181 3456 
Q 3181 3784 2986 3965 
Q 2791 4147 2438 4147 
L 1613 4147 
z
" transform="scale(0.015625)"/>
      <path id="DejaVuSans-2c" d="M 750 794 
L 1409 794 
L 1409 256 
L 897 -744 
L 494 -744 
L 750 256 
L 750 794 
z
" transform="scale(0.015625)"/>
      <path id="DejaVuSans-Oblique-43" d="M 4447 4306 
L 4319 3641 
Q 4019 3944 3683 4091 
Q 3347 4238 2956 4238 
Q 2422 4238 2017 3981 
Q 1613 3725 1319 3200 
Q 1131 2863 1032 2486 
Q 934 2109 934 1728 
Q 934 1091 1264 756 
Q 1594 422 2222 422 
Q 2656 422 3056 561 
Q 3456 700 3834 978 
L 3688 231 
Q 3316 72 2936 -9 
Q 2556 -91 2175 -91 
Q 1278 -91 773 396 
Q 269 884 269 1753 
Q 269 2309 461 2846 
Q 653 3384 1013 3828 
Q 1394 4300 1883 4525 
Q 2372 4750 3022 4750 
Q 3422 4750 3780 4639 
Q 4138 4528 4447 4306 
z
" transform="scale(0.015625)"/>
      <path id="DejaVuSans-Oblique-4b" d="M 1081 4666 
L 1716 4666 
L 1331 2700 
L 3781 4666 
L 4622 4666 
L 1850 2438 
L 3878 0 
L 3109 0 
L 1247 2272 
L 806 0 
L 172 0 
L 1081 4666 
z
" transform="scale(0.015625)"/>
      <path id="DejaVuSans-29" d="M 513 4856 
L 1013 4856 
Q 1481 4119 1714 3412 
Q 1947 2706 1947 2009 
Q 1947 1309 1714 600 
Q 1481 -109 1013 -844 
L 513 -844 
Q 928 -128 1133 580 
Q 1338 1288 1338 2009 
Q 1338 2731 1133 3434 
Q 928 4138 513 4856 
z
" transform="scale(0.015625)"/>
     </defs>
     <use xlink:href="#DejaVuSans-Bold-78" transform="translate(0 0.125)"/>
     <use xlink:href="#DejaVuSans-Oblique-74" transform="translate(65.458984 -16.28125) scale(0.7)"/>
     <use xlink:href="#DejaVuSans-2b" transform="translate(106.542969 -16.28125) scale(0.7)"/>
     <use xlink:href="#DejaVuSans-31" transform="translate(178.833008 -16.28125) scale(0.7)"/>
     <use xlink:href="#DejaVuSans-3d" transform="translate(245.585938 0.125)"/>
     <use xlink:href="#DejaVuSans-Oblique-46" transform="translate(348.857422 0.125)"/>
     <use xlink:href="#DejaVuSans-28" transform="translate(406.376953 0.125)"/>
     <use xlink:href="#DejaVuSans-Bold-78" transform="translate(445.390625 0.125)"/>
     <use xlink:href="#DejaVuSans-Oblique-74" transform="translate(510.849609 -16.28125) scale(0.7)"/>
     <use xlink:href="#DejaVuSans-3b" transform="translate(541.030273 0.125)"/>
     <use xlink:href="#DejaVuSans-Oblique-50" transform="translate(594.204102 0.125)"/>
     <use xlink:href="#DejaVuSans-2c" transform="translate(654.506836 0.125)"/>
     <use xlink:href="#DejaVuSans-Oblique-43" transform="translate(705.776367 0.125)"/>
     <use xlink:href="#DejaVuSans-2c" transform="translate(775.600586 0.125)"/>
     <use xlink:href="#DejaVuSans-Oblique-4b" transform="translate(826.870117 0.125)"/>
     <use xlink:href="#DejaVuSans-29" transform="translate(892.446289 0.125)"/>
    </g>
   </g>
   <g id="text_3">
    <!-- Evolving State -->
    <g transform="translate(358.108906 230.271716) scale(0.11 -0.11)">
     <defs>
      <path id="DejaVuSans-45" d="M 628 4666 
L 3578 4666 
L 3578 4134 
L 1259 4134 
L 1259 2753 
L 3481 2753 
L 3481 2222 
L 1259 2222 
L 1259 531 
L 3634 531 
L 3634 0 
L 628 0 
L 628 4666 
z
" transform="scale(0.015625)"/>
      <path id="DejaVuSans-76" d="M 191 3500 
L 800 3500 
L 1894 563 
L 2988 3500 
L 3597 3500 
L 2284 0 
L 1503 0 
L 191 3500 
z
" transform="scale(0.015625)"/>
      <path id="DejaVuSans-6f" d="M 1959 3097 
Q 1497 3097 1228 2736 
Q 959 2375 959 1747 
Q 959 1119 1226 758 
Q 1494 397 1959 397 
Q 2419 397 2687 759 
Q 2956 1122 2956 1747 
Q 2956 2369 2687 2733 
Q 2419 3097 1959 3097 
z
M 1959 3584 
Q 2709 3584 3137 3096 
Q 3566 2609 3566 1747 
Q 3566 888 3137 398 
Q 2709 -91 1959 -91 
Q 1206 -91 779 398 
Q 353 888 353 1747 
Q 353 2609 779 3096 
Q 1206 3584 1959 3584 
z
" transform="scale(0.015625)"/>
      <path id="DejaVuSans-69" d="M 603 3500 
L 1178 3500 
L 1178 0 
L 603 0 
L 603 3500 
z
M 603 4863 
L 1178 4863 
L 1178 4134 
L 603 4134 
L 603 4863 
z
" transform="scale(0.015625)"/>
      <path id="DejaVuSans-6e" d="M 3513 2113 
L 3513 0 
L 2938 0 
L 2938 2094 
Q 2938 2591 2744 2837 
Q 2550 3084 2163 3084 
Q 1697 3084 1428 2787 
Q 1159 2491 1159 1978 
L 1159 0 
L 581 0 
L 581 3500 
L 1159 3500 
L 1159 2956 
Q 1366 3272 1645 3428 
Q 1925 3584 2291 3584 
Q 2894 3584 3203 3211 
Q 3513 2838 3513 2113 
z
" transform="scale(0.015625)"/>
      <path id="DejaVuSans-67" d="M 2906 1791 
Q 2906 2416 2648 2759 
Q 2391 3103 1925 3103 
Q 1463 3103 1205 2759 
Q 947 2416 947 1791 
Q 947 1169 1205 825 
Q 1463 481 1925 481 
Q 2391 481 2648 825 
Q 2906 1169 2906 1791 
z
M 3481 434 
Q 3481 -459 3084 -895 
Q 2688 -1331 1869 -1331 
Q 1566 -1331 1297 -1286 
Q 1028 -1241 775 -1147 
L 775 -588 
Q 1028 -725 1275 -790 
Q 1522 -856 1778 -856 
Q 2344 -856 2625 -561 
Q 2906 -266 2906 331 
L 2906 616 
Q 2728 306 2450 153 
Q 2172 0 1784 0 
Q 1141 0 747 490 
Q 353 981 353 1791 
Q 353 2603 747 3093 
Q 1141 3584 1784 3584 
Q 2172 3584 2450 3431 
Q 2728 3278 2906 2969 
L 2906 3500 
L 3481 3500 
L 3481 434 
z
" transform="scale(0.015625)"/>
      <path id="DejaVuSans-53" d="M 3425 4513 
L 3425 3897 
Q 3066 4069 2747 4153 
Q 2428 4238 2131 4238 
Q 1616 4238 1336 4038 
Q 1056 3838 1056 3469 
Q 1056 3159 1242 3001 
Q 1428 2844 1947 2747 
L 2328 2669 
Q 3034 2534 3370 2195 
Q 3706 1856 3706 1288 
Q 3706 609 3251 259 
Q 2797 -91 1919 -91 
Q 1588 -91 1214 -16 
Q 841 59 441 206 
L 441 856 
Q 825 641 1194 531 
Q 1563 422 1919 422 
Q 2459 422 2753 634 
Q 3047 847 3047 1241 
Q 3047 1584 2836 1778 
Q 2625 1972 2144 2069 
L 1759 2144 
Q 1053 2284 737 2584 
Q 422 2884 422 3419 
Q 422 4038 858 4394 
Q 1294 4750 2059 4750 
Q 2388 4750 2728 4690 
Q 3069 4631 3425 4513 
z
" transform="scale(0.015625)"/>
     </defs>
     <use xlink:href="#DejaVuSans-45"/>
     <use xlink:href="#DejaVuSans-76" transform="translate(63.183594 0)"/>
     <use xlink:href="#DejaVuSans-6f" transform="translate(122.363281 0)"/>
     <use xlink:href="#DejaVuSans-6c" transform="translate(183.544922 0)"/>
     <use xlink:href="#DejaVuSans-76" transform="translate(211.328125 0)"/>
     <use xlink:href="#DejaVuSans-69" transform="translate(270.507812 0)"/>
     <use xlink:href="#DejaVuSans-6e" transform="translate(298.291016 0)"/>
     <use xlink:href="#DejaVuSans-67" transform="translate(361.669922 0)"/>
     <use xlink:href="#DejaVuSans-20" transform="translate(425.146484 0)"/>
     <use xlink:href="#DejaVuSans-53" transform="translate(456.933594 0)"/>
     <use xlink:href="#DejaVuSans-74" transform="translate(520.410156 0)"/>
     <use xlink:href="#DejaVuSans-61" transform="translate(559.619141 0)"/>
     <use xlink:href="#DejaVuSans-74" transform="translate(620.898438 0)"/>
     <use xlink:href="#DejaVuSans-65" transform="translate(660.107422 0)"/>
    </g>
    <!-- $\mathbf{x}(t)$ -->
    <g transform="translate(387.79 242.589309) scale(0.11 -0.11)">
     <use xlink:href="#DejaVuSans-Bold-78" transform="translate(0 0.125)"/>
     <use xlink:href="#DejaVuSans-28" transform="translate(64.501953 0.125)"/>
     <use xlink:href="#DejaVuSans-Oblique-74" transform="translate(103.515625 0.125)"/>
     <use xlink:href="#DejaVuSans-29" transform="translate(142.724609 0.125)"/>
    </g>
   </g>
   <g id="text_4">
    <!-- Pressure $P$ -->
    <g transform="translate(150.134 78.028519) scale(0.11 -0.11)">
     <defs>
      <path id="DejaVuSans-72" d="M 2631 2963 
Q 2534 3019 2420 3045 
Q 2306 3072 2169 3072 
Q 1681 3072 1420 2755 
Q 1159 2438 1159 1844 
L 1159 0 
L 581 0 
L 581 3500 
L 1159 3500 
L 1159 2956 
Q 1341 3275 1631 3429 
Q 1922 3584 2338 3584 
Q 2397 3584 2469 3576 
Q 2541 3569 2628 3553 
L 2631 2963 
z
" transform="scale(0.015625)"/>
      <path id="DejaVuSans-73" d="M 2834 3397 
L 2834 2853 
Q 2591 2978 2328 3040 
Q 2066 3103 1784 3103 
Q 1356 3103 1142 2972 
Q 928 2841 928 2578 
Q 928 2378 1081 2264 
Q 1234 2150 1697 2047 
L 1894 2003 
Q 2506 1872 2764 1633 
Q 3022 1394 3022 966 
Q 3022 478 2636 193 
Q 2250 -91 1575 -91 
Q 1294 -91 989 -36 
Q 684 19 347 128 
L 347 722 
Q 666 556 975 473 
Q 1284 391 1588 391 
Q 1994 391 2212 530 
Q 2431 669 2431 922 
Q 2431 1156 2273 1281 
Q 2116 1406 1581 1522 
L 1381 1569 
Q 847 1681 609 1914 
Q 372 2147 372 2553 
Q 372 3047 722 3315 
Q 1072 3584 1716 3584 
Q 2034 3584 2315 3537 
Q 2597 3491 2834 3397 
z
" transform="scale(0.015625)"/>
     </defs>
     <use xlink:href="#DejaVuSans-50" transform="translate(0 0.09375)"/>
     <use xlink:href="#DejaVuSans-72" transform="translate(60.302734 0.09375)"/>
     <use xlink:href="#DejaVuSans-65" transform="translate(101.416016 0.09375)"/>
     <use xlink:href="#DejaVuSans-73" transform="translate(162.939453 0.09375)"/>
     <use xlink:href="#DejaVuSans-73" transform="translate(215.039062 0.09375)"/>
     <use xlink:href="#DejaVuSans-75" transform="translate(267.138672 0.09375)"/>
     <use xlink:href="#DejaVuSans-72" transform="translate(330.517578 0.09375)"/>
     <use xlink:href="#DejaVuSans-65" transform="translate(371.630859 0.09375)"/>
     <use xlink:href="#DejaVuSans-20" transform="translate(433.154297 0.09375)"/>
     <use xlink:href="#DejaVuSans-Oblique-50" transform="translate(464.941406 0.09375)"/>
    </g>
    <!-- compressive / -->
    <g transform="translate(140.805484 90.346112) scale(0.11 -0.11)">
     <defs>
      <path id="DejaVuSans-63" d="M 3122 3366 
L 3122 2828 
Q 2878 2963 2633 3030 
Q 2388 3097 2138 3097 
Q 1578 3097 1268 2742 
Q 959 2388 959 1747 
Q 959 1106 1268 751 
Q 1578 397 2138 397 
Q 2388 397 2633 464 
Q 2878 531 3122 666 
L 3122 134 
Q 2881 22 2623 -34 
Q 2366 -91 2075 -91 
Q 1284 -91 818 406 
Q 353 903 353 1747 
Q 353 2603 823 3093 
Q 1294 3584 2113 3584 
Q 2378 3584 2631 3529 
Q 2884 3475 3122 3366 
z
" transform="scale(0.015625)"/>
      <path id="DejaVuSans-6d" d="M 3328 2828 
Q 3544 3216 3844 3400 
Q 4144 3584 4550 3584 
Q 5097 3584 5394 3201 
Q 5691 2819 5691 2113 
L 5691 0 
L 5113 0 
L 5113 2094 
Q 5113 2597 4934 2840 
Q 4756 3084 4391 3084 
Q 3944 3084 3684 2787 
Q 3425 2491 3425 1978 
L 3425 0 
L 2847 0 
L 2847 2094 
Q 2847 2600 2669 2842 
Q 2491 3084 2119 3084 
Q 1678 3084 1418 2786 
Q 1159 2488 1159 1978 
L 1159 0 
L 581 0 
L 581 3500 
L 1159 3500 
L 1159 2956 
Q 1356 3278 1631 3431 
Q 1906 3584 2284 3584 
Q 2666 3584 2933 3390 
Q 3200 3197 3328 2828 
z
" transform="scale(0.015625)"/>
      <path id="DejaVuSans-2f" d="M 1625 4666 
L 2156 4666 
L 531 -594 
L 0 -594 
L 1625 4666 
z
" transform="scale(0.015625)"/>
     </defs>
     <use xlink:href="#DejaVuSans-63"/>
     <use xlink:href="#DejaVuSans-6f" transform="translate(54.980469 0)"/>
     <use xlink:href="#DejaVuSans-6d" transform="translate(116.162109 0)"/>
     <use xlink:href="#DejaVuSans-70" transform="translate(213.574219 0)"/>
     <use xlink:href="#DejaVuSans-72" transform="translate(277.050781 0)"/>
     <use xlink:href="#DejaVuSans-65" transform="translate(315.914062 0)"/>
     <use xlink:href="#DejaVuSans-73" transform="translate(377.4375 0)"/>
     <use xlink:href="#DejaVuSans-73" transform="translate(429.537109 0)"/>
     <use xlink:href="#DejaVuSans-69" transform="translate(481.636719 0)"/>
     <use xlink:href="#DejaVuSans-76" transform="translate(509.419922 0)"/>
     <use xlink:href="#DejaVuSans-65" transform="translate(568.599609 0)"/>
     <use xlink:href="#DejaVuSans-20" transform="translate(630.123047 0)"/>
     <use xlink:href="#DejaVuSans-2f" transform="translate(661.910156 0)"/>
    </g>
    <!-- transition-driving -->
    <g transform="translate(131.837047 102.663706) scale(0.11 -0.11)">
     <defs>
      <path id="DejaVuSans-2d" d="M 313 2009 
L 1997 2009 
L 1997 1497 
L 313 1497 
L 313 2009 
z
" transform="scale(0.015625)"/>
     </defs>
     <use xlink:href="#DejaVuSans-74"/>
     <use xlink:href="#DejaVuSans-72" transform="translate(39.208984 0)"/>
     <use xlink:href="#DejaVuSans-61" transform="translate(80.322266 0)"/>
     <use xlink:href="#DejaVuSans-6e" transform="translate(141.601562 0)"/>
     <use xlink:href="#DejaVuSans-73" transform="translate(204.980469 0)"/>
     <use xlink:href="#DejaVuSans-69" transform="translate(257.080078 0)"/>
     <use xlink:href="#DejaVuSans-74" transform="translate(284.863281 0)"/>
     <use xlink:href="#DejaVuSans-69" transform="translate(324.072266 0)"/>
     <use xlink:href="#DejaVuSans-6f" transform="translate(351.855469 0)"/>
     <use xlink:href="#DejaVuSans-6e" transform="translate(413.037109 0)"/>
     <use xlink:href="#DejaVuSans-2d" transform="translate(476.416016 0)"/>
     <use xlink:href="#DejaVuSans-64" transform="translate(512.5 0)"/>
     <use xlink:href="#DejaVuSans-72" transform="translate(575.976562 0)"/>
     <use xlink:href="#DejaVuSans-69" transform="translate(617.089844 0)"/>
     <use xlink:href="#DejaVuSans-76" transform="translate(644.873047 0)"/>
     <use xlink:href="#DejaVuSans-69" transform="translate(704.052734 0)"/>
     <use xlink:href="#DejaVuSans-6e" transform="translate(731.835938 0)"/>
     <use xlink:href="#DejaVuSans-67" transform="translate(795.214844 0)"/>
    </g>
   </g>
   <g id="text_5">
    <!-- Control $C$ -->
    <g transform="translate(372.17 59.178919) scale(0.11 -0.11)">
     <use xlink:href="#DejaVuSans-43" transform="translate(0 0.015625)"/>
     <use xlink:href="#DejaVuSans-6f" transform="translate(69.824219 0.015625)"/>
     <use xlink:href="#DejaVuSans-6e" transform="translate(131.005859 0.015625)"/>
     <use xlink:href="#DejaVuSans-74" transform="translate(194.384766 0.015625)"/>
     <use xlink:href="#DejaVuSans-72" transform="translate(233.59375 0.015625)"/>
     <use xlink:href="#DejaVuSans-6f" transform="translate(274.707031 0.015625)"/>
     <use xlink:href="#DejaVuSans-6c" transform="translate(335.888672 0.015625)"/>
     <use xlink:href="#DejaVuSans-20" transform="translate(363.671875 0.015625)"/>
     <use xlink:href="#DejaVuSans-Oblique-43" transform="translate(395.458984 0.015625)"/>
    </g>
    <!-- stabilizing / -->
    <g transform="translate(366.34 71.496512) scale(0.11 -0.11)">
     <defs>
      <path id="DejaVuSans-62" d="M 3116 1747 
Q 3116 2381 2855 2742 
Q 2594 3103 2138 3103 
Q 1681 3103 1420 2742 
Q 1159 2381 1159 1747 
Q 1159 1113 1420 752 
Q 1681 391 2138 391 
Q 2594 391 2855 752 
Q 3116 1113 3116 1747 
z
M 1159 2969 
Q 1341 3281 1617 3432 
Q 1894 3584 2278 3584 
Q 2916 3584 3314 3078 
Q 3713 2572 3713 1747 
Q 3713 922 3314 415 
Q 2916 -91 2278 -91 
Q 1894 -91 1617 61 
Q 1341 213 1159 525 
L 1159 0 
L 581 0 
L 581 4863 
L 1159 4863 
L 1159 2969 
z
" transform="scale(0.015625)"/>
      <path id="DejaVuSans-7a" d="M 353 3500 
L 3084 3500 
L 3084 2975 
L 922 459 
L 3084 459 
L 3084 0 
L 275 0 
L 275 525 
L 2438 3041 
L 353 3041 
L 353 3500 
z
" transform="scale(0.015625)"/>
     </defs>
     <use xlink:href="#DejaVuSans-73"/>
     <use xlink:href="#DejaVuSans-74" transform="translate(52.099609 0)"/>
     <use xlink:href="#DejaVuSans-61" transform="translate(91.308594 0)"/>
     <use xlink:href="#DejaVuSans-62" transform="translate(152.587891 0)"/>
     <use xlink:href="#DejaVuSans-69" transform="translate(216.064453 0)"/>
     <use xlink:href="#DejaVuSans-6c" transform="translate(243.847656 0)"/>
     <use xlink:href="#DejaVuSans-69" transform="translate(271.630859 0)"/>
     <use xlink:href="#DejaVuSans-7a" transform="translate(299.414062 0)"/>
     <use xlink:href="#DejaVuSans-69" transform="translate(351.904297 0)"/>
     <use xlink:href="#DejaVuSans-6e" transform="translate(379.6875 0)"/>
     <use xlink:href="#DejaVuSans-67" transform="translate(443.066406 0)"/>
     <use xlink:href="#DejaVuSans-20" transform="translate(506.542969 0)"/>
     <use xlink:href="#DejaVuSans-2f" transform="translate(538.330078 0)"/>
    </g>
    <!-- constraint-enforcing -->
    <g transform="translate(342.280078 83.814106) scale(0.11 -0.11)">
     <defs>
      <path id="DejaVuSans-66" d="M 2375 4863 
L 2375 4384 
L 1825 4384 
Q 1516 4384 1395 4259 
Q 1275 4134 1275 3809 
L 1275 3500 
L 2222 3500 
L 2222 3053 
L 1275 3053 
L 1275 0 
L 697 0 
L 697 3053 
L 147 3053 
L 147 3500 
L 697 3500 
L 697 3744 
Q 697 4328 969 4595 
Q 1241 4863 1831 4863 
L 2375 4863 
z
" transform="scale(0.015625)"/>
     </defs>
     <use xlink:href="#DejaVuSans-63"/>
     <use xlink:href="#DejaVuSans-6f" transform="translate(54.980469 0)"/>
     <use xlink:href="#DejaVuSans-6e" transform="translate(116.162109 0)"/>
     <use xlink:href="#DejaVuSans-73" transform="translate(179.541016 0)"/>
     <use xlink:href="#DejaVuSans-74" transform="translate(231.640625 0)"/>
     <use xlink:href="#DejaVuSans-72" transform="translate(270.849609 0)"/>
     <use xlink:href="#DejaVuSans-61" transform="translate(311.962891 0)"/>
     <use xlink:href="#DejaVuSans-69" transform="translate(373.242188 0)"/>
     <use xlink:href="#DejaVuSans-6e" transform="translate(401.025391 0)"/>
     <use xlink:href="#DejaVuSans-74" transform="translate(464.404297 0)"/>
     <use xlink:href="#DejaVuSans-2d" transform="translate(503.613281 0)"/>
     <use xlink:href="#DejaVuSans-65" transform="translate(539.697266 0)"/>
     <use xlink:href="#DejaVuSans-6e" transform="translate(601.220703 0)"/>
     <use xlink:href="#DejaVuSans-66" transform="translate(664.599609 0)"/>
     <use xlink:href="#DejaVuSans-6f" transform="translate(699.804688 0)"/>
     <use xlink:href="#DejaVuSans-72" transform="translate(760.986328 0)"/>
     <use xlink:href="#DejaVuSans-63" transform="translate(799.849609 0)"/>
     <use xlink:href="#DejaVuSans-69" transform="translate(854.830078 0)"/>
     <use xlink:href="#DejaVuSans-6e" transform="translate(882.613281 0)"/>
     <use xlink:href="#DejaVuSans-67" transform="translate(945.992188 0)"/>
    </g>
   </g>
   <g id="text_6">
    <!-- Chaos $K$ -->
    <g transform="translate(594.206 78.028519) scale(0.11 -0.11)">
     <defs>
      <path id="DejaVuSans-68" d="M 3513 2113 
L 3513 0 
L 2938 0 
L 2938 2094 
Q 2938 2591 2744 2837 
Q 2550 3084 2163 3084 
Q 1697 3084 1428 2787 
Q 1159 2491 1159 1978 
L 1159 0 
L 581 0 
L 581 4863 
L 1159 4863 
L 1159 2956 
Q 1366 3272 1645 3428 
Q 1925 3584 2291 3584 
Q 2894 3584 3203 3211 
Q 3513 2838 3513 2113 
z
" transform="scale(0.015625)"/>
     </defs>
     <use xlink:href="#DejaVuSans-43" transform="translate(0 0.015625)"/>
     <use xlink:href="#DejaVuSans-68" transform="translate(69.824219 0.015625)"/>
     <use xlink:href="#DejaVuSans-61" transform="translate(133.203125 0.015625)"/>
     <use xlink:href="#DejaVuSans-6f" transform="translate(194.482422 0.015625)"/>
     <use xlink:href="#DejaVuSans-73" transform="translate(255.664062 0.015625)"/>
     <use xlink:href="#DejaVuSans-20" transform="translate(307.763672 0.015625)"/>
     <use xlink:href="#DejaVuSans-Oblique-4b" transform="translate(339.550781 0.015625)"/>
    </g>
    <!-- stochastic / -->
    <g transform="translate(585.094906 90.346112) scale(0.11 -0.11)">
     <use xlink:href="#DejaVuSans-73"/>
     <use xlink:href="#DejaVuSans-74" transform="translate(52.099609 0)"/>
     <use xlink:href="#DejaVuSans-6f" transform="translate(91.308594 0)"/>
     <use xlink:href="#DejaVuSans-63" transform="translate(152.490234 0)"/>
     <use xlink:href="#DejaVuSans-68" transform="translate(207.470703 0)"/>
     <use xlink:href="#DejaVuSans-61" transform="translate(270.849609 0)"/>
     <use xlink:href="#DejaVuSans-73" transform="translate(332.128906 0)"/>
     <use xlink:href="#DejaVuSans-74" transform="translate(384.228516 0)"/>
     <use xlink:href="#DejaVuSans-69" transform="translate(423.4375 0)"/>
     <use xlink:href="#DejaVuSans-63" transform="translate(451.220703 0)"/>
     <use xlink:href="#DejaVuSans-20" transform="translate(506.201172 0)"/>
     <use xlink:href="#DejaVuSans-2f" transform="translate(537.988281 0)"/>
    </g>
    <!-- dispersive -->
    <g transform="translate(588.481703 102.663706) scale(0.11 -0.11)">
     <use xlink:href="#DejaVuSans-64"/>
     <use xlink:href="#DejaVuSans-69" transform="translate(63.476562 0)"/>
     <use xlink:href="#DejaVuSans-73" transform="translate(91.259766 0)"/>
     <use xlink:href="#DejaVuSans-70" transform="translate(143.359375 0)"/>
     <use xlink:href="#DejaVuSans-65" transform="translate(206.835938 0)"/>
     <use xlink:href="#DejaVuSans-72" transform="translate(268.359375 0)"/>
     <use xlink:href="#DejaVuSans-73" transform="translate(309.472656 0)"/>
     <use xlink:href="#DejaVuSans-69" transform="translate(361.572266 0)"/>
     <use xlink:href="#DejaVuSans-76" transform="translate(389.355469 0)"/>
     <use xlink:href="#DejaVuSans-65" transform="translate(448.535156 0)"/>
    </g>
   </g>
   <g id="text_7">
    <!-- Entropy -->
    <g transform="translate(251.441359 329.232116) scale(0.11 -0.11)">
     <defs>
      <path id="DejaVuSans-79" d="M 2059 -325 
Q 1816 -950 1584 -1140 
Q 1353 -1331 966 -1331 
L 506 -1331 
L 506 -850 
L 844 -850 
Q 1081 -850 1212 -737 
Q 1344 -625 1503 -206 
L 1606 56 
L 191 3500 
L 800 3500 
L 1894 763 
L 2988 3500 
L 3597 3500 
L 2059 -325 
z
" transform="scale(0.015625)"/>
     </defs>
     <use xlink:href="#DejaVuSans-45"/>
     <use xlink:href="#DejaVuSans-6e" transform="translate(63.183594 0)"/>
     <use xlink:href="#DejaVuSans-74" transform="translate(126.5625 0)"/>
     <use xlink:href="#DejaVuSans-72" transform="translate(165.771484 0)"/>
     <use xlink:href="#DejaVuSans-6f" transform="translate(204.634766 0)"/>
     <use xlink:href="#DejaVuSans-70" transform="translate(265.816406 0)"/>
     <use xlink:href="#DejaVuSans-79" transform="translate(329.292969 0)"/>
    </g>
    <!-- $S(t)$ -->
    <g transform="translate(262.853 341.549709) scale(0.11 -0.11)">
     <defs>
      <path id="DejaVuSans-Oblique-53" d="M 3859 4513 
L 3738 3897 
Q 3422 4066 3111 4152 
Q 2800 4238 2509 4238 
Q 1944 4238 1609 3991 
Q 1275 3744 1275 3334 
Q 1275 3109 1398 2989 
Q 1522 2869 2034 2731 
L 2413 2638 
Q 3053 2472 3303 2217 
Q 3553 1963 3553 1503 
Q 3553 797 2998 353 
Q 2444 -91 1538 -91 
Q 1166 -91 791 -17 
Q 416 56 38 206 
L 166 856 
Q 513 641 861 531 
Q 1209 422 1556 422 
Q 2147 422 2503 684 
Q 2859 947 2859 1369 
Q 2859 1650 2717 1795 
Q 2575 1941 2106 2059 
L 1728 2156 
Q 1081 2325 845 2545 
Q 609 2766 609 3163 
Q 609 3859 1145 4304 
Q 1681 4750 2541 4750 
Q 2875 4750 3203 4690 
Q 3531 4631 3859 4513 
z
" transform="scale(0.015625)"/>
     </defs>
     <use xlink:href="#DejaVuSans-Oblique-53" transform="translate(0 0.125)"/>
     <use xlink:href="#DejaVuSans-28" transform="translate(63.476562 0.125)"/>
     <use xlink:href="#DejaVuSans-Oblique-74" transform="translate(102.490234 0.125)"/>
     <use xlink:href="#DejaVuSans-29" transform="translate(141.699219 0.125)"/>
    </g>
   </g>
   <g id="text_8">
    <!-- Instability -->
    <g transform="translate(495.805047 329.232116) scale(0.11 -0.11)">
     <defs>
      <path id="DejaVuSans-49" d="M 628 4666 
L 1259 4666 
L 1259 0 
L 628 0 
L 628 4666 
z
" transform="scale(0.015625)"/>
     </defs>
     <use xlink:href="#DejaVuSans-49"/>
     <use xlink:href="#DejaVuSans-6e" transform="translate(29.492188 0)"/>
     <use xlink:href="#DejaVuSans-73" transform="translate(92.871094 0)"/>
     <use xlink:href="#DejaVuSans-74" transform="translate(144.970703 0)"/>
     <use xlink:href="#DejaVuSans-61" transform="translate(184.179688 0)"/>
     <use xlink:href="#DejaVuSans-62" transform="translate(245.458984 0)"/>
     <use xlink:href="#DejaVuSans-69" transform="translate(308.935547 0)"/>
     <use xlink:href="#DejaVuSans-6c" transform="translate(336.71875 0)"/>
     <use xlink:href="#DejaVuSans-69" transform="translate(364.501953 0)"/>
     <use xlink:href="#DejaVuSans-74" transform="translate(392.285156 0)"/>
     <use xlink:href="#DejaVuSans-79" transform="translate(431.494141 0)"/>
    </g>
    <!-- $I(t)$ -->
    <g transform="translate(514.707 341.549709) scale(0.11 -0.11)">
     <defs>
      <path id="DejaVuSans-Oblique-49" d="M 1081 4666 
L 1716 4666 
L 806 0 
L 172 0 
L 1081 4666 
z
" transform="scale(0.015625)"/>
     </defs>
     <use xlink:href="#DejaVuSans-Oblique-49" transform="translate(0 0.125)"/>
     <use xlink:href="#DejaVuSans-28" transform="translate(29.492188 0.125)"/>
     <use xlink:href="#DejaVuSans-Oblique-74" transform="translate(68.505859 0.125)"/>
     <use xlink:href="#DejaVuSans-29" transform="translate(107.714844 0.125)"/>
    </g>
   </g>
   <g id="text_9">
    <!-- Entropy Sensitivity -->
    <g transform="translate(127.315875 418.767716) scale(0.11 -0.11)">
     <use xlink:href="#DejaVuSans-45"/>
     <use xlink:href="#DejaVuSans-6e" transform="translate(63.183594 0)"/>
     <use xlink:href="#DejaVuSans-74" transform="translate(126.5625 0)"/>
     <use xlink:href="#DejaVuSans-72" transform="translate(165.771484 0)"/>
     <use xlink:href="#DejaVuSans-6f" transform="translate(204.634766 0)"/>
     <use xlink:href="#DejaVuSans-70" transform="translate(265.816406 0)"/>
     <use xlink:href="#DejaVuSans-79" transform="translate(329.292969 0)"/>
     <use xlink:href="#DejaVuSans-20" transform="translate(388.472656 0)"/>
     <use xlink:href="#DejaVuSans-53" transform="translate(420.259766 0)"/>
     <use xlink:href="#DejaVuSans-65" transform="translate(483.736328 0)"/>
     <use xlink:href="#DejaVuSans-6e" transform="translate(545.259766 0)"/>
     <use xlink:href="#DejaVuSans-73" transform="translate(608.638672 0)"/>
     <use xlink:href="#DejaVuSans-69" transform="translate(660.738281 0)"/>
     <use xlink:href="#DejaVuSans-74" transform="translate(688.521484 0)"/>
     <use xlink:href="#DejaVuSans-69" transform="translate(727.730469 0)"/>
     <use xlink:href="#DejaVuSans-76" transform="translate(755.513672 0)"/>
     <use xlink:href="#DejaVuSans-69" transform="translate(814.693359 0)"/>
     <use xlink:href="#DejaVuSans-74" transform="translate(842.476562 0)"/>
     <use xlink:href="#DejaVuSans-79" transform="translate(881.685547 0)"/>
    </g>
    <!-- $\mathrm{d}S/\mathrm{d}P$ -->
    <g transform="translate(163.389 431.085309) scale(0.11 -0.11)">
     <use xlink:href="#DejaVuSans-64" transform="translate(0 0.015625)"/>
     <use xlink:href="#DejaVuSans-Oblique-53" transform="translate(63.476562 0.015625)"/>
     <use xlink:href="#DejaVuSans-2f" transform="translate(126.953125 0.015625)"/>
     <use xlink:href="#DejaVuSans-64" transform="translate(160.644531 0.015625)"/>
     <use xlink:href="#DejaVuSans-Oblique-50" transform="translate(224.121094 0.015625)"/>
    </g>
   </g>
   <g id="text_10">
    <!-- Critical Pressure -->
    <g transform="translate(322.088797 417.259512) scale(0.11 -0.11)">
     <use xlink:href="#DejaVuSans-43"/>
     <use xlink:href="#DejaVuSans-72" transform="translate(69.824219 0)"/>
     <use xlink:href="#DejaVuSans-69" transform="translate(110.9375 0)"/>
     <use xlink:href="#DejaVuSans-74" transform="translate(138.720703 0)"/>
     <use xlink:href="#DejaVuSans-69" transform="translate(177.929688 0)"/>
     <use xlink:href="#DejaVuSans-63" transform="translate(205.712891 0)"/>
     <use xlink:href="#DejaVuSans-61" transform="translate(260.693359 0)"/>
     <use xlink:href="#DejaVuSans-6c" transform="translate(321.972656 0)"/>
     <use xlink:href="#DejaVuSans-20" transform="translate(349.755859 0)"/>
     <use xlink:href="#DejaVuSans-50" transform="translate(381.542969 0)"/>
     <use xlink:href="#DejaVuSans-72" transform="translate(440.095703 0)"/>
     <use xlink:href="#DejaVuSans-65" transform="translate(478.958984 0)"/>
     <use xlink:href="#DejaVuSans-73" transform="translate(540.482422 0)"/>
     <use xlink:href="#DejaVuSans-73" transform="translate(592.582031 0)"/>
     <use xlink:href="#DejaVuSans-75" transform="translate(644.681641 0)"/>
     <use xlink:href="#DejaVuSans-72" transform="translate(708.060547 0)"/>
     <use xlink:href="#DejaVuSans-65" transform="translate(746.923828 0)"/>
    </g>
    <!-- $P_c^{(\tau)} = \min\{P : S(P) &lt; \tau\}$ -->
    <g transform="translate(304.732 431.691169) scale(0.11 -0.11)">
     <defs>
      <path id="DejaVuSans-Oblique-3c4" d="M 2103 638 
Q 2188 488 2525 488 
L 2800 488 
L 2706 0 
L 2363 0 
Q 1800 0 1600 300 
Q 1403 606 1534 1269 
L 1856 2925 
L 541 2925 
L 653 3500 
L 3881 3500 
L 3769 2925 
L 2444 2925 
L 2113 1234 
Q 2025 781 2103 638 
z
" transform="scale(0.015625)"/>
      <path id="DejaVuSans-Oblique-63" d="M 3431 3366 
L 3316 2797 
Q 3109 2947 2876 3022 
Q 2644 3097 2394 3097 
Q 2119 3097 1870 3000 
Q 1622 2903 1453 2725 
Q 1184 2453 1037 2087 
Q 891 1722 891 1331 
Q 891 859 1127 628 
Q 1363 397 1844 397 
Q 2081 397 2348 469 
Q 2616 541 2906 684 
L 2797 116 
Q 2547 13 2283 -39 
Q 2019 -91 1741 -91 
Q 1044 -91 669 257 
Q 294 606 294 1253 
Q 294 1797 489 2255 
Q 684 2713 1069 3078 
Q 1331 3328 1684 3456 
Q 2038 3584 2456 3584 
Q 2700 3584 2940 3529 
Q 3181 3475 3431 3366 
z
" transform="scale(0.015625)"/>
      <path id="DejaVuSans-7b" d="M 3272 -594 
L 3272 -1044 
L 3078 -1044 
Q 2300 -1044 2036 -812 
Q 1772 -581 1772 109 
L 1772 856 
Q 1772 1328 1603 1509 
Q 1434 1691 991 1691 
L 800 1691 
L 800 2138 
L 991 2138 
Q 1438 2138 1605 2317 
Q 1772 2497 1772 2963 
L 1772 3713 
Q 1772 4403 2036 4633 
Q 2300 4863 3078 4863 
L 3272 4863 
L 3272 4416 
L 3059 4416 
Q 2619 4416 2484 4278 
Q 2350 4141 2350 3700 
L 2350 2925 
Q 2350 2434 2208 2212 
Q 2066 1991 1722 1913 
Q 2069 1828 2209 1606 
Q 2350 1384 2350 897 
L 2350 122 
Q 2350 -319 2484 -456 
Q 2619 -594 3059 -594 
L 3272 -594 
z
" transform="scale(0.015625)"/>
      <path id="DejaVuSans-3a" d="M 750 794 
L 1409 794 
L 1409 0 
L 750 0 
L 750 794 
z
M 750 3309 
L 1409 3309 
L 1409 2516 
L 750 2516 
L 750 3309 
z
" transform="scale(0.015625)"/>
      <path id="DejaVuSans-3c" d="M 4684 3150 
L 1459 2003 
L 4684 863 
L 4684 294 
L 678 1747 
L 678 2266 
L 4684 3719 
L 4684 3150 
z
" transform="scale(0.015625)"/>
      <path id="DejaVuSans-7d" d="M 800 -594 
L 1019 -594 
Q 1456 -594 1589 -459 
Q 1722 -325 1722 122 
L 1722 897 
Q 1722 1384 1862 1606 
Q 2003 1828 2350 1913 
Q 2003 1991 1862 2212 
Q 1722 2434 1722 2925 
L 1722 3700 
Q 1722 4144 1589 4280 
Q 1456 4416 1019 4416 
L 800 4416 
L 800 4863 
L 997 4863 
Q 1775 4863 2036 4633 
Q 2297 4403 2297 3713 
L 2297 2963 
Q 2297 2497 2465 2317 
Q 2634 2138 3078 2138 
L 3272 2138 
L 3272 1691 
L 3078 1691 
Q 2634 1691 2465 1509 
Q 2297 1328 2297 856 
L 2297 109 
Q 2297 -581 2036 -812 
Q 1775 -1044 997 -1044 
L 800 -1044 
L 800 -594 
z
" transform="scale(0.015625)"/>
     </defs>
     <use xlink:href="#DejaVuSans-Oblique-50" transform="translate(0 0.60625)"/>
     <use xlink:href="#DejaVuSans-28" transform="translate(67.319505 38.8875) scale(0.7)"/>
     <use xlink:href="#DejaVuSans-Oblique-3c4" transform="translate(94.629076 38.8875) scale(0.7)"/>
     <use xlink:href="#DejaVuSans-29" transform="translate(136.77263 38.8875) scale(0.7)"/>
     <use xlink:href="#DejaVuSans-Oblique-63" transform="translate(60.302734 -26.7375) scale(0.7)"/>
     <use xlink:href="#DejaVuSans-3d" transform="translate(186.298997 0.60625)"/>
     <use xlink:href="#DejaVuSans-6d" transform="translate(289.570482 0.60625)"/>
     <use xlink:href="#DejaVuSans-69" transform="translate(386.982591 0.60625)"/>
     <use xlink:href="#DejaVuSans-6e" transform="translate(414.765794 0.60625)"/>
     <use xlink:href="#DejaVuSans-7b" transform="translate(478.144701 0.60625)"/>
     <use xlink:href="#DejaVuSans-Oblique-50" transform="translate(541.767747 0.60625)"/>
     <use xlink:href="#DejaVuSans-3a" transform="translate(621.552904 0.60625)"/>
     <use xlink:href="#DejaVuSans-Oblique-53" transform="translate(674.726732 0.60625)"/>
     <use xlink:href="#DejaVuSans-28" transform="translate(738.203294 0.60625)"/>
     <use xlink:href="#DejaVuSans-Oblique-50" transform="translate(777.216966 0.60625)"/>
     <use xlink:href="#DejaVuSans-29" transform="translate(837.519701 0.60625)"/>
     <use xlink:href="#DejaVuSans-3c" transform="translate(896.015794 0.60625)"/>
     <use xlink:href="#DejaVuSans-Oblique-3c4" transform="translate(999.287279 0.60625)"/>
     <use xlink:href="#DejaVuSans-7d" transform="translate(1059.492357 0.60625)"/>
    </g>
   </g>
   <g id="text_11">
    <!-- Instability Sensitivity -->
    <g transform="translate(527.919563 418.767716) scale(0.11 -0.11)">
     <use xlink:href="#DejaVuSans-49"/>
     <use xlink:href="#DejaVuSans-6e" transform="translate(29.492188 0)"/>
     <use xlink:href="#DejaVuSans-73" transform="translate(92.871094 0)"/>
     <use xlink:href="#DejaVuSans-74" transform="translate(144.970703 0)"/>
     <use xlink:href="#DejaVuSans-61" transform="translate(184.179688 0)"/>
     <use xlink:href="#DejaVuSans-62" transform="translate(245.458984 0)"/>
     <use xlink:href="#DejaVuSans-69" transform="translate(308.935547 0)"/>
     <use xlink:href="#DejaVuSans-6c" transform="translate(336.71875 0)"/>
     <use xlink:href="#DejaVuSans-69" transform="translate(364.501953 0)"/>
     <use xlink:href="#DejaVuSans-74" transform="translate(392.285156 0)"/>
     <use xlink:href="#DejaVuSans-79" transform="translate(431.494141 0)"/>
     <use xlink:href="#DejaVuSans-20" transform="translate(490.673828 0)"/>
     <use xlink:href="#DejaVuSans-53" transform="translate(522.460938 0)"/>
     <use xlink:href="#DejaVuSans-65" transform="translate(585.9375 0)"/>
     <use xlink:href="#DejaVuSans-6e" transform="translate(647.460938 0)"/>
     <use xlink:href="#DejaVuSans-73" transform="translate(710.839844 0)"/>
     <use xlink:href="#DejaVuSans-69" transform="translate(762.939453 0)"/>
     <use xlink:href="#DejaVuSans-74" transform="translate(790.722656 0)"/>
     <use xlink:href="#DejaVuSans-69" transform="translate(829.931641 0)"/>
     <use xlink:href="#DejaVuSans-76" transform="translate(857.714844 0)"/>
     <use xlink:href="#DejaVuSans-69" transform="translate(916.894531 0)"/>
     <use xlink:href="#DejaVuSans-74" transform="translate(944.677734 0)"/>
     <use xlink:href="#DejaVuSans-79" transform="translate(983.886719 0)"/>
    </g>
    <!-- $\mathrm{d}I/\mathrm{d}P$ -->
    <g transform="translate(571.483 431.085309) scale(0.11 -0.11)">
     <use xlink:href="#DejaVuSans-64" transform="translate(0 0.015625)"/>
     <use xlink:href="#DejaVuSans-Oblique-49" transform="translate(63.476562 0.015625)"/>
     <use xlink:href="#DejaVuSans-2f" transform="translate(92.96875 0.015625)"/>
     <use xlink:href="#DejaVuSans-64" transform="translate(126.660156 0.015625)"/>
     <use xlink:href="#DejaVuSans-Oblique-50" transform="translate(190.136719 0.015625)"/>
    </g>
   </g>
   <g id="text_12">
    <!-- Collapse Steepness -->
    <g transform="translate(656.650703 418.767716) scale(0.11 -0.11)">
     <use xlink:href="#DejaVuSans-43"/>
     <use xlink:href="#DejaVuSans-6f" transform="translate(69.824219 0)"/>
     <use xlink:href="#DejaVuSans-6c" transform="translate(131.005859 0)"/>
     <use xlink:href="#DejaVuSans-6c" transform="translate(158.789062 0)"/>
     <use xlink:href="#DejaVuSans-61" transform="translate(186.572266 0)"/>
     <use xlink:href="#DejaVuSans-70" transform="translate(247.851562 0)"/>
     <use xlink:href="#DejaVuSans-73" transform="translate(311.328125 0)"/>
     <use xlink:href="#DejaVuSans-65" transform="translate(363.427734 0)"/>
     <use xlink:href="#DejaVuSans-20" transform="translate(424.951172 0)"/>
     <use xlink:href="#DejaVuSans-53" transform="translate(456.738281 0)"/>
     <use xlink:href="#DejaVuSans-74" transform="translate(520.214844 0)"/>
     <use xlink:href="#DejaVuSans-65" transform="translate(559.423828 0)"/>
     <use xlink:href="#DejaVuSans-65" transform="translate(620.947266 0)"/>
     <use xlink:href="#DejaVuSans-70" transform="translate(682.470703 0)"/>
     <use xlink:href="#DejaVuSans-6e" transform="translate(745.947266 0)"/>
     <use xlink:href="#DejaVuSans-65" transform="translate(809.326172 0)"/>
     <use xlink:href="#DejaVuSans-73" transform="translate(870.849609 0)"/>
     <use xlink:href="#DejaVuSans-73" transform="translate(922.949219 0)"/>
    </g>
    <!-- $\min(\mathrm{d}S/\mathrm{d}P)$ -->
    <g transform="translate(679.92 431.085309) scale(0.11 -0.11)">
     <use xlink:href="#DejaVuSans-6d" transform="translate(0 0.015625)"/>
     <use xlink:href="#DejaVuSans-69" transform="translate(97.412109 0.015625)"/>
     <use xlink:href="#DejaVuSans-6e" transform="translate(125.195312 0.015625)"/>
     <use xlink:href="#DejaVuSans-28" transform="translate(188.574219 0.015625)"/>
     <use xlink:href="#DejaVuSans-64" transform="translate(227.587891 0.015625)"/>
     <use xlink:href="#DejaVuSans-Oblique-53" transform="translate(291.064453 0.015625)"/>
     <use xlink:href="#DejaVuSans-2f" transform="translate(354.541016 0.015625)"/>
     <use xlink:href="#DejaVuSans-64" transform="translate(388.232422 0.015625)"/>
     <use xlink:href="#DejaVuSans-Oblique-50" transform="translate(451.708984 0.015625)"/>
     <use xlink:href="#DejaVuSans-29" transform="translate(512.011719 0.015625)"/>
    </g>
   </g>
   <g id="text_13">
    <!-- drives -->
    <g transform="translate(248.210687 105.393116) scale(0.11 -0.11)">
     <use xlink:href="#DejaVuSans-64"/>
     <use xlink:href="#DejaVuSans-72" transform="translate(63.476562 0)"/>
     <use xlink:href="#DejaVuSans-69" transform="translate(104.589844 0)"/>
     <use xlink:href="#DejaVuSans-76" transform="translate(132.373047 0)"/>
     <use xlink:href="#DejaVuSans-65" transform="translate(191.552734 0)"/>
     <use xlink:href="#DejaVuSans-73" transform="translate(253.076172 0)"/>
    </g>
    <!-- compression -->
    <g transform="translate(230.126859 117.710709) scale(0.11 -0.11)">
     <use xlink:href="#DejaVuSans-63"/>
     <use xlink:href="#DejaVuSans-6f" transform="translate(54.980469 0)"/>
     <use xlink:href="#DejaVuSans-6d" transform="translate(116.162109 0)"/>
     <use xlink:href="#DejaVuSans-70" transform="translate(213.574219 0)"/>
     <use xlink:href="#DejaVuSans-72" transform="translate(277.050781 0)"/>
     <use xlink:href="#DejaVuSans-65" transform="translate(315.914062 0)"/>
     <use xlink:href="#DejaVuSans-73" transform="translate(377.4375 0)"/>
     <use xlink:href="#DejaVuSans-73" transform="translate(429.537109 0)"/>
     <use xlink:href="#DejaVuSans-69" transform="translate(481.636719 0)"/>
     <use xlink:href="#DejaVuSans-6f" transform="translate(509.419922 0)"/>
     <use xlink:href="#DejaVuSans-6e" transform="translate(570.601562 0)"/>
    </g>
   </g>
   <g id="text_14">
    <!-- stabilizes -->
    <g transform="translate(419.068641 111.551912) scale(0.11 -0.11)">
     <use xlink:href="#DejaVuSans-73"/>
     <use xlink:href="#DejaVuSans-74" transform="translate(52.099609 0)"/>
     <use xlink:href="#DejaVuSans-61" transform="translate(91.308594 0)"/>
     <use xlink:href="#DejaVuSans-62" transform="translate(152.587891 0)"/>
     <use xlink:href="#DejaVuSans-69" transform="translate(216.064453 0)"/>
     <use xlink:href="#DejaVuSans-6c" transform="translate(243.847656 0)"/>
     <use xlink:href="#DejaVuSans-69" transform="translate(271.630859 0)"/>
     <use xlink:href="#DejaVuSans-7a" transform="translate(299.414062 0)"/>
     <use xlink:href="#DejaVuSans-65" transform="translate(351.904297 0)"/>
     <use xlink:href="#DejaVuSans-73" transform="translate(413.427734 0)"/>
    </g>
   </g>
   <g id="text_15">
    <!-- induces -->
    <g transform="translate(509.339625 105.393116) scale(0.11 -0.11)">
     <use xlink:href="#DejaVuSans-69"/>
     <use xlink:href="#DejaVuSans-6e" transform="translate(27.783203 0)"/>
     <use xlink:href="#DejaVuSans-64" transform="translate(91.162109 0)"/>
     <use xlink:href="#DejaVuSans-75" transform="translate(154.638672 0)"/>
     <use xlink:href="#DejaVuSans-63" transform="translate(218.017578 0)"/>
     <use xlink:href="#DejaVuSans-65" transform="translate(272.998047 0)"/>
     <use xlink:href="#DejaVuSans-73" transform="translate(334.521484 0)"/>
    </g>
    <!-- dispersion -->
    <g transform="translate(502.338297 117.710709) scale(0.11 -0.11)">
     <use xlink:href="#DejaVuSans-64"/>
     <use xlink:href="#DejaVuSans-69" transform="translate(63.476562 0)"/>
     <use xlink:href="#DejaVuSans-73" transform="translate(91.259766 0)"/>
     <use xlink:href="#DejaVuSans-70" transform="translate(143.359375 0)"/>
     <use xlink:href="#DejaVuSans-65" transform="translate(206.835938 0)"/>
     <use xlink:href="#DejaVuSans-72" transform="translate(268.359375 0)"/>
     <use xlink:href="#DejaVuSans-73" transform="translate(309.472656 0)"/>
     <use xlink:href="#DejaVuSans-69" transform="translate(361.572266 0)"/>
     <use xlink:href="#DejaVuSans-6f" transform="translate(389.355469 0)"/>
     <use xlink:href="#DejaVuSans-6e" transform="translate(450.537109 0)"/>
    </g>
   </g>
   <g id="text_16">
    <!-- pressure sweep: -->
    <g transform="translate(454.381469 369.287516) scale(0.11 -0.11)">
     <defs>
      <path id="DejaVuSans-77" d="M 269 3500 
L 844 3500 
L 1563 769 
L 2278 3500 
L 2956 3500 
L 3675 769 
L 4391 3500 
L 4966 3500 
L 4050 0 
L 3372 0 
L 2619 2869 
L 1863 0 
L 1184 0 
L 269 3500 
z
" transform="scale(0.015625)"/>
     </defs>
     <use xlink:href="#DejaVuSans-70"/>
     <use xlink:href="#DejaVuSans-72" transform="translate(63.476562 0)"/>
     <use xlink:href="#DejaVuSans-65" transform="translate(102.339844 0)"/>
     <use xlink:href="#DejaVuSans-73" transform="translate(163.863281 0)"/>
     <use xlink:href="#DejaVuSans-73" transform="translate(215.962891 0)"/>
     <use xlink:href="#DejaVuSans-75" transform="translate(268.0625 0)"/>
     <use xlink:href="#DejaVuSans-72" transform="translate(331.441406 0)"/>
     <use xlink:href="#DejaVuSans-65" transform="translate(370.304688 0)"/>
     <use xlink:href="#DejaVuSans-20" transform="translate(431.828125 0)"/>
     <use xlink:href="#DejaVuSans-73" transform="translate(463.615234 0)"/>
     <use xlink:href="#DejaVuSans-77" transform="translate(515.714844 0)"/>
     <use xlink:href="#DejaVuSans-65" transform="translate(597.501953 0)"/>
     <use xlink:href="#DejaVuSans-65" transform="translate(659.025391 0)"/>
     <use xlink:href="#DejaVuSans-70" transform="translate(720.548828 0)"/>
     <use xlink:href="#DejaVuSans-3a" transform="translate(784.025391 0)"/>
    </g>
    <!-- $S(P)$ -->
    <g transform="translate(488.246 381.605109) scale(0.11 -0.11)">
     <use xlink:href="#DejaVuSans-Oblique-53" transform="translate(0 0.125)"/>
     <use xlink:href="#DejaVuSans-28" transform="translate(63.476562 0.125)"/>
     <use xlink:href="#DejaVuSans-Oblique-50" transform="translate(102.490234 0.125)"/>
     <use xlink:href="#DejaVuSans-29" transform="translate(162.792969 0.125)"/>
    </g>
   </g>
   <g id="text_17">
    <!-- Macroscopic observables extracted from simulated state trajectories -->
    <g transform="translate(208.199531 290.623112) scale(0.11 -0.11)">
     <defs>
      <path id="DejaVuSans-Oblique-4d" d="M 1081 4666 
L 2028 4666 
L 2572 1522 
L 4378 4666 
L 5350 4666 
L 4441 0 
L 3828 0 
L 4622 4091 
L 2791 897 
L 2175 897 
L 1581 4103 
L 788 0 
L 172 0 
L 1081 4666 
z
" transform="scale(0.015625)"/>
      <path id="DejaVuSans-Oblique-61" d="M 3438 1997 
L 3047 0 
L 2472 0 
L 2578 531 
Q 2325 219 2001 64 
Q 1678 -91 1281 -91 
Q 834 -91 548 182 
Q 263 456 263 884 
Q 263 1497 752 1853 
Q 1241 2209 2100 2209 
L 2900 2209 
L 2931 2363 
Q 2938 2388 2941 2417 
Q 2944 2447 2944 2509 
Q 2944 2788 2717 2942 
Q 2491 3097 2081 3097 
Q 1800 3097 1504 3025 
Q 1209 2953 897 2809 
L 997 3341 
Q 1322 3463 1633 3523 
Q 1944 3584 2234 3584 
Q 2853 3584 3176 3315 
Q 3500 3047 3500 2534 
Q 3500 2431 3484 2292 
Q 3469 2153 3438 1997 
z
M 2816 1759 
L 2241 1759 
Q 1534 1759 1195 1570 
Q 856 1381 856 984 
Q 856 709 1029 553 
Q 1203 397 1509 397 
Q 1978 397 2328 733 
Q 2678 1069 2791 1631 
L 2816 1759 
z
" transform="scale(0.015625)"/>
      <path id="DejaVuSans-Oblique-72" d="M 2853 2969 
Q 2766 3016 2653 3041 
Q 2541 3066 2413 3066 
Q 1953 3066 1609 2717 
Q 1266 2369 1153 1784 
L 800 0 
L 225 0 
L 909 3500 
L 1484 3500 
L 1375 2956 
Q 1603 3259 1920 3421 
Q 2238 3584 2597 3584 
Q 2691 3584 2781 3573 
Q 2872 3563 2963 3538 
L 2853 2969 
z
" transform="scale(0.015625)"/>
      <path id="DejaVuSans-Oblique-6f" d="M 1625 -91 
Q 1009 -91 651 289 
Q 294 669 294 1325 
Q 294 1706 417 2101 
Q 541 2497 738 2766 
Q 1047 3184 1428 3384 
Q 1809 3584 2291 3584 
Q 2888 3584 3255 3212 
Q 3622 2841 3622 2241 
Q 3622 1825 3500 1412 
Q 3378 1000 3181 728 
Q 2875 309 2494 109 
Q 2113 -91 1625 -91 
z
M 891 1344 
Q 891 869 1089 633 
Q 1288 397 1691 397 
Q 2269 397 2648 901 
Q 3028 1406 3028 2181 
Q 3028 2634 2825 2865 
Q 2622 3097 2228 3097 
Q 1903 3097 1650 2945 
Q 1397 2794 1197 2484 
Q 1050 2253 970 1956 
Q 891 1659 891 1344 
z
" transform="scale(0.015625)"/>
      <path id="DejaVuSans-Oblique-73" d="M 3200 3397 
L 3091 2853 
Q 2863 2978 2609 3040 
Q 2356 3103 2088 3103 
Q 1634 3103 1373 2948 
Q 1113 2794 1113 2528 
Q 1113 2219 1719 2053 
Q 1766 2041 1788 2034 
L 1972 1978 
Q 2547 1819 2739 1644 
Q 2931 1469 2931 1166 
Q 2931 609 2489 259 
Q 2047 -91 1331 -91 
Q 1053 -91 747 -37 
Q 441 16 72 128 
L 184 722 
Q 500 559 806 475 
Q 1113 391 1394 391 
Q 1816 391 2080 572 
Q 2344 753 2344 1031 
Q 2344 1331 1650 1516 
L 1591 1531 
L 1394 1581 
Q 956 1697 753 1886 
Q 550 2075 550 2369 
Q 550 2928 970 3256 
Q 1391 3584 2113 3584 
Q 2397 3584 2667 3537 
Q 2938 3491 3200 3397 
z
" transform="scale(0.015625)"/>
      <path id="DejaVuSans-Oblique-70" d="M 3175 2156 
Q 3175 2616 2975 2859 
Q 2775 3103 2400 3103 
Q 2144 3103 1911 2972 
Q 1678 2841 1497 2591 
Q 1319 2344 1212 1994 
Q 1106 1644 1106 1300 
Q 1106 863 1306 627 
Q 1506 391 1875 391 
Q 2147 391 2380 519 
Q 2613 647 2778 891 
Q 2956 1147 3065 1494 
Q 3175 1841 3175 2156 
z
M 1394 2969 
Q 1625 3272 1939 3428 
Q 2253 3584 2638 3584 
Q 3175 3584 3472 3232 
Q 3769 2881 3769 2247 
Q 3769 1728 3584 1258 
Q 3400 788 3053 416 
Q 2822 169 2531 39 
Q 2241 -91 1919 -91 
Q 1547 -91 1294 64 
Q 1041 219 916 525 
L 556 -1331 
L -19 -1331 
L 922 3500 
L 1497 3500 
L 1394 2969 
z
" transform="scale(0.015625)"/>
      <path id="DejaVuSans-Oblique-69" d="M 1172 4863 
L 1747 4863 
L 1606 4134 
L 1031 4134 
L 1172 4863 
z
M 909 3500 
L 1484 3500 
L 800 0 
L 225 0 
L 909 3500 
z
" transform="scale(0.015625)"/>
      <path id="DejaVuSans-Oblique-20" transform="scale(0.015625)"/>
      <path id="DejaVuSans-Oblique-62" d="M 3169 2138 
Q 3169 2591 2961 2847 
Q 2753 3103 2388 3103 
Q 2122 3103 1889 2973 
Q 1656 2844 1484 2597 
Q 1303 2338 1198 1995 
Q 1094 1653 1094 1313 
Q 1094 881 1298 636 
Q 1503 391 1863 391 
Q 2134 391 2365 517 
Q 2597 644 2772 891 
Q 2950 1147 3059 1487 
Q 3169 1828 3169 2138 
z
M 1381 2969 
Q 1594 3256 1914 3420 
Q 2234 3584 2584 3584 
Q 3122 3584 3439 3221 
Q 3756 2859 3756 2241 
Q 3756 1734 3570 1259 
Q 3384 784 3041 416 
Q 2816 172 2522 40 
Q 2228 -91 1906 -91 
Q 1566 -91 1316 65 
Q 1066 222 909 531 
L 806 0 
L 231 0 
L 1178 4863 
L 1753 4863 
L 1381 2969 
z
" transform="scale(0.015625)"/>
      <path id="DejaVuSans-Oblique-65" d="M 3078 2063 
Q 3088 2113 3092 2166 
Q 3097 2219 3097 2272 
Q 3097 2653 2873 2875 
Q 2650 3097 2266 3097 
Q 1838 3097 1509 2826 
Q 1181 2556 1013 2059 
L 3078 2063 
z
M 3578 1613 
L 903 1613 
Q 884 1494 878 1425 
Q 872 1356 872 1306 
Q 872 872 1139 634 
Q 1406 397 1894 397 
Q 2269 397 2603 481 
Q 2938 566 3225 728 
L 3116 159 
Q 2806 34 2476 -28 
Q 2147 -91 1806 -91 
Q 1078 -91 686 257 
Q 294 606 294 1247 
Q 294 1794 489 2264 
Q 684 2734 1063 3103 
Q 1306 3334 1642 3459 
Q 1978 3584 2356 3584 
Q 2950 3584 3301 3228 
Q 3653 2872 3653 2272 
Q 3653 2128 3634 1964 
Q 3616 1800 3578 1613 
z
" transform="scale(0.015625)"/>
      <path id="DejaVuSans-Oblique-76" d="M 459 3500 
L 1069 3500 
L 1581 525 
L 3256 3500 
L 3866 3500 
L 1875 0 
L 1100 0 
L 459 3500 
z
" transform="scale(0.015625)"/>
      <path id="DejaVuSans-Oblique-6c" d="M 1172 4863 
L 1747 4863 
L 800 0 
L 225 0 
L 1172 4863 
z
" transform="scale(0.015625)"/>
      <path id="DejaVuSans-Oblique-78" d="M 3841 3500 
L 2234 1784 
L 3219 0 
L 2559 0 
L 1819 1388 
L 531 0 
L -166 0 
L 1556 1844 
L 641 3500 
L 1300 3500 
L 1972 2234 
L 3144 3500 
L 3841 3500 
z
" transform="scale(0.015625)"/>
      <path id="DejaVuSans-Oblique-64" d="M 2675 525 
Q 2444 222 2128 65 
Q 1813 -91 1428 -91 
Q 903 -91 598 267 
Q 294 625 294 1247 
Q 294 1766 478 2236 
Q 663 2706 1013 3078 
Q 1244 3325 1534 3454 
Q 1825 3584 2144 3584 
Q 2481 3584 2739 3421 
Q 2997 3259 3138 2956 
L 3513 4863 
L 4091 4863 
L 3144 0 
L 2566 0 
L 2675 525 
z
M 891 1350 
Q 891 897 1095 644 
Q 1300 391 1663 391 
Q 1931 391 2161 520 
Q 2391 650 2566 903 
Q 2750 1166 2856 1509 
Q 2963 1853 2963 2188 
Q 2963 2622 2758 2865 
Q 2553 3109 2194 3109 
Q 1922 3109 1687 2981 
Q 1453 2853 1288 2613 
Q 1106 2353 998 2009 
Q 891 1666 891 1350 
z
" transform="scale(0.015625)"/>
      <path id="DejaVuSans-Oblique-66" d="M 3059 4863 
L 2969 4384 
L 2419 4384 
Q 2106 4384 1964 4261 
Q 1822 4138 1753 3809 
L 1691 3500 
L 2638 3500 
L 2553 3053 
L 1606 3053 
L 1013 0 
L 434 0 
L 1031 3053 
L 481 3053 
L 563 3500 
L 1113 3500 
L 1159 3744 
Q 1278 4363 1576 4613 
Q 1875 4863 2516 4863 
L 3059 4863 
z
" transform="scale(0.015625)"/>
      <path id="DejaVuSans-Oblique-6d" d="M 5747 2113 
L 5338 0 
L 4763 0 
L 5166 2094 
Q 5191 2228 5203 2325 
Q 5216 2422 5216 2491 
Q 5216 2772 5059 2928 
Q 4903 3084 4622 3084 
Q 4203 3084 3875 2770 
Q 3547 2456 3450 1953 
L 3066 0 
L 2491 0 
L 2900 2094 
Q 2925 2209 2937 2307 
Q 2950 2406 2950 2484 
Q 2950 2769 2794 2926 
Q 2638 3084 2363 3084 
Q 1938 3084 1609 2770 
Q 1281 2456 1184 1953 
L 800 0 
L 225 0 
L 909 3500 
L 1484 3500 
L 1375 2956 
Q 1609 3263 1923 3423 
Q 2238 3584 2597 3584 
Q 2978 3584 3223 3384 
Q 3469 3184 3519 2828 
Q 3781 3197 4126 3390 
Q 4472 3584 4856 3584 
Q 5306 3584 5551 3325 
Q 5797 3066 5797 2591 
Q 5797 2488 5784 2364 
Q 5772 2241 5747 2113 
z
" transform="scale(0.015625)"/>
      <path id="DejaVuSans-Oblique-75" d="M 428 1388 
L 838 3500 
L 1416 3500 
L 1006 1409 
Q 975 1256 961 1147 
Q 947 1038 947 966 
Q 947 700 1109 554 
Q 1272 409 1569 409 
Q 2031 409 2368 721 
Q 2706 1034 2809 1563 
L 3194 3500 
L 3769 3500 
L 3091 0 
L 2516 0 
L 2631 550 
Q 2388 244 2052 76 
Q 1716 -91 1338 -91 
Q 878 -91 622 161 
Q 366 413 366 863 
Q 366 956 381 1097 
Q 397 1238 428 1388 
z
" transform="scale(0.015625)"/>
      <path id="DejaVuSans-Oblique-6a" d="M 928 3500 
L 1503 3500 
L 813 -63 
L 809 -78 
Q 694 -675 544 -897 
Q 403 -1106 132 -1218 
Q -138 -1331 -506 -1331 
L -722 -1331 
L -628 -844 
L -481 -844 
Q -144 -844 -1 -703 
Q 141 -563 238 -63 
L 928 3500 
z
M 1197 4863 
L 1772 4863 
L 1631 4134 
L 1056 4134 
L 1197 4863 
z
" transform="scale(0.015625)"/>
     </defs>
     <use xlink:href="#DejaVuSans-Oblique-4d"/>
     <use xlink:href="#DejaVuSans-Oblique-61" transform="translate(86.279297 0)"/>
     <use xlink:href="#DejaVuSans-Oblique-63" transform="translate(147.558594 0)"/>
     <use xlink:href="#DejaVuSans-Oblique-72" transform="translate(202.539062 0)"/>
     <use xlink:href="#DejaVuSans-Oblique-6f" transform="translate(243.652344 0)"/>
     <use xlink:href="#DejaVuSans-Oblique-73" transform="translate(304.833984 0)"/>
     <use xlink:href="#DejaVuSans-Oblique-63" transform="translate(356.933594 0)"/>
     <use xlink:href="#DejaVuSans-Oblique-6f" transform="translate(411.914062 0)"/>
     <use xlink:href="#DejaVuSans-Oblique-70" transform="translate(473.095703 0)"/>
     <use xlink:href="#DejaVuSans-Oblique-69" transform="translate(536.572266 0)"/>
     <use xlink:href="#DejaVuSans-Oblique-63" transform="translate(564.355469 0)"/>
     <use xlink:href="#DejaVuSans-Oblique-20" transform="translate(619.335938 0)"/>
     <use xlink:href="#DejaVuSans-Oblique-6f" transform="translate(651.123047 0)"/>
     <use xlink:href="#DejaVuSans-Oblique-62" transform="translate(712.304688 0)"/>
     <use xlink:href="#DejaVuSans-Oblique-73" transform="translate(775.78125 0)"/>
     <use xlink:href="#DejaVuSans-Oblique-65" transform="translate(827.880859 0)"/>
     <use xlink:href="#DejaVuSans-Oblique-72" transform="translate(889.404297 0)"/>
     <use xlink:href="#DejaVuSans-Oblique-76" transform="translate(930.517578 0)"/>
     <use xlink:href="#DejaVuSans-Oblique-61" transform="translate(989.697266 0)"/>
     <use xlink:href="#DejaVuSans-Oblique-62" transform="translate(1050.976562 0)"/>
     <use xlink:href="#DejaVuSans-Oblique-6c" transform="translate(1114.453125 0)"/>
     <use xlink:href="#DejaVuSans-Oblique-65" transform="translate(1142.236328 0)"/>
     <use xlink:href="#DejaVuSans-Oblique-73" transform="translate(1203.759766 0)"/>
     <use xlink:href="#DejaVuSans-Oblique-20" transform="translate(1255.859375 0)"/>
     <use xlink:href="#DejaVuSans-Oblique-65" transform="translate(1287.646484 0)"/>
     <use xlink:href="#DejaVuSans-Oblique-78" transform="translate(1349.169922 0)"/>
     <use xlink:href="#DejaVuSans-Oblique-74" transform="translate(1408.349609 0)"/>
     <use xlink:href="#DejaVuSans-Oblique-72" transform="translate(1447.558594 0)"/>
     <use xlink:href="#DejaVuSans-Oblique-61" transform="translate(1488.671875 0)"/>
     <use xlink:href="#DejaVuSans-Oblique-63" transform="translate(1549.951172 0)"/>
     <use xlink:href="#DejaVuSans-Oblique-74" transform="translate(1604.931641 0)"/>
     <use xlink:href="#DejaVuSans-Oblique-65" transform="translate(1644.140625 0)"/>
     <use xlink:href="#DejaVuSans-Oblique-64" transform="translate(1705.664062 0)"/>
     <use xlink:href="#DejaVuSans-Oblique-20" transform="translate(1769.140625 0)"/>
     <use xlink:href="#DejaVuSans-Oblique-66" transform="translate(1800.927734 0)"/>
     <use xlink:href="#DejaVuSans-Oblique-72" transform="translate(1836.132812 0)"/>
     <use xlink:href="#DejaVuSans-Oblique-6f" transform="translate(1877.246094 0)"/>
     <use xlink:href="#DejaVuSans-Oblique-6d" transform="translate(1938.427734 0)"/>
     <use xlink:href="#DejaVuSans-Oblique-20" transform="translate(2035.839844 0)"/>
     <use xlink:href="#DejaVuSans-Oblique-73" transform="translate(2067.626953 0)"/>
     <use xlink:href="#DejaVuSans-Oblique-69" transform="translate(2119.726562 0)"/>
     <use xlink:href="#DejaVuSans-Oblique-6d" transform="translate(2147.509766 0)"/>
     <use xlink:href="#DejaVuSans-Oblique-75" transform="translate(2244.921875 0)"/>
     <use xlink:href="#DejaVuSans-Oblique-6c" transform="translate(2308.300781 0)"/>
     <use xlink:href="#DejaVuSans-Oblique-61" transform="translate(2336.083984 0)"/>
     <use xlink:href="#DejaVuSans-Oblique-74" transform="translate(2397.363281 0)"/>
     <use xlink:href="#DejaVuSans-Oblique-65" transform="translate(2436.572266 0)"/>
     <use xlink:href="#DejaVuSans-Oblique-64" transform="translate(2498.095703 0)"/>
     <use xlink:href="#DejaVuSans-Oblique-20" transform="translate(2561.572266 0)"/>
     <use xlink:href="#DejaVuSans-Oblique-73" transform="translate(2593.359375 0)"/>
     <use xlink:href="#DejaVuSans-Oblique-74" transform="translate(2645.458984 0)"/>
     <use xlink:href="#DejaVuSans-Oblique-61" transform="translate(2684.667969 0)"/>
     <use xlink:href="#DejaVuSans-Oblique-74" transform="translate(2745.947266 0)"/>
     <use xlink:href="#DejaVuSans-Oblique-65" transform="translate(2785.15625 0)"/>
     <use xlink:href="#DejaVuSans-Oblique-20" transform="translate(2846.679688 0)"/>
     <use xlink:href="#DejaVuSans-Oblique-74" transform="translate(2878.466797 0)"/>
     <use xlink:href="#DejaVuSans-Oblique-72" transform="translate(2917.675781 0)"/>
     <use xlink:href="#DejaVuSans-Oblique-61" transform="translate(2958.789062 0)"/>
     <use xlink:href="#DejaVuSans-Oblique-6a" transform="translate(3020.068359 0)"/>
     <use xlink:href="#DejaVuSans-Oblique-65" transform="translate(3047.851562 0)"/>
     <use xlink:href="#DejaVuSans-Oblique-63" transform="translate(3109.375 0)"/>
     <use xlink:href="#DejaVuSans-Oblique-74" transform="translate(3164.355469 0)"/>
     <use xlink:href="#DejaVuSans-Oblique-6f" transform="translate(3203.564453 0)"/>
     <use xlink:href="#DejaVuSans-Oblique-72" transform="translate(3264.746094 0)"/>
     <use xlink:href="#DejaVuSans-Oblique-69" transform="translate(3305.859375 0)"/>
     <use xlink:href="#DejaVuSans-Oblique-65" transform="translate(3333.642578 0)"/>
     <use xlink:href="#DejaVuSans-Oblique-73" transform="translate(3395.166016 0)"/>
    </g>
   </g>
   <g id="text_18">
    <!-- Derived quantities used to identify entropy phases, transition boundaries, and collapse geometry. -->
    <g transform="translate(152.960938 467.062175) scale(0.1 -0.1)">
     <defs>
      <path id="DejaVuSans-44" d="M 1259 4147 
L 1259 519 
L 2022 519 
Q 2988 519 3436 956 
Q 3884 1394 3884 2338 
Q 3884 3275 3436 3711 
Q 2988 4147 2022 4147 
L 1259 4147 
z
M 628 4666 
L 1925 4666 
Q 3281 4666 3915 4102 
Q 4550 3538 4550 2338 
Q 4550 1131 3912 565 
Q 3275 0 1925 0 
L 628 0 
L 628 4666 
z
" transform="scale(0.015625)"/>
      <path id="DejaVuSans-71" d="M 947 1747 
Q 947 1113 1208 752 
Q 1469 391 1925 391 
Q 2381 391 2643 752 
Q 2906 1113 2906 1747 
Q 2906 2381 2643 2742 
Q 2381 3103 1925 3103 
Q 1469 3103 1208 2742 
Q 947 2381 947 1747 
z
M 2906 525 
Q 2725 213 2448 61 
Q 2172 -91 1784 -91 
Q 1150 -91 751 415 
Q 353 922 353 1747 
Q 353 2572 751 3078 
Q 1150 3584 1784 3584 
Q 2172 3584 2448 3432 
Q 2725 3281 2906 2969 
L 2906 3500 
L 3481 3500 
L 3481 -1331 
L 2906 -1331 
L 2906 525 
z
" transform="scale(0.015625)"/>
      <path id="DejaVuSans-2e" d="M 684 794 
L 1344 794 
L 1344 0 
L 684 0 
L 684 794 
z
" transform="scale(0.015625)"/>
     </defs>
     <use xlink:href="#DejaVuSans-44"/>
     <use xlink:href="#DejaVuSans-65" transform="translate(77.001953 0)"/>
     <use xlink:href="#DejaVuSans-72" transform="translate(138.525391 0)"/>
     <use xlink:href="#DejaVuSans-69" transform="translate(179.638672 0)"/>
     <use xlink:href="#DejaVuSans-76" transform="translate(207.421875 0)"/>
     <use xlink:href="#DejaVuSans-65" transform="translate(266.601562 0)"/>
     <use xlink:href="#DejaVuSans-64" transform="translate(328.125 0)"/>
     <use xlink:href="#DejaVuSans-20" transform="translate(391.601562 0)"/>
     <use xlink:href="#DejaVuSans-71" transform="translate(423.388672 0)"/>
     <use xlink:href="#DejaVuSans-75" transform="translate(486.865234 0)"/>
     <use xlink:href="#DejaVuSans-61" transform="translate(550.244141 0)"/>
     <use xlink:href="#DejaVuSans-6e" transform="translate(611.523438 0)"/>
     <use xlink:href="#DejaVuSans-74" transform="translate(674.902344 0)"/>
     <use xlink:href="#DejaVuSans-69" transform="translate(714.111328 0)"/>
     <use xlink:href="#DejaVuSans-74" transform="translate(741.894531 0)"/>
     <use xlink:href="#DejaVuSans-69" transform="translate(781.103516 0)"/>
     <use xlink:href="#DejaVuSans-65" transform="translate(808.886719 0)"/>
     <use xlink:href="#DejaVuSans-73" transform="translate(870.410156 0)"/>
     <use xlink:href="#DejaVuSans-20" transform="translate(922.509766 0)"/>
     <use xlink:href="#DejaVuSans-75" transform="translate(954.296875 0)"/>
     <use xlink:href="#DejaVuSans-73" transform="translate(1017.675781 0)"/>
     <use xlink:href="#DejaVuSans-65" transform="translate(1069.775391 0)"/>
     <use xlink:href="#DejaVuSans-64" transform="translate(1131.298828 0)"/>
     <use xlink:href="#DejaVuSans-20" transform="translate(1194.775391 0)"/>
     <use xlink:href="#DejaVuSans-74" transform="translate(1226.5625 0)"/>
     <use xlink:href="#DejaVuSans-6f" transform="translate(1265.771484 0)"/>
     <use xlink:href="#DejaVuSans-20" transform="translate(1326.953125 0)"/>
     <use xlink:href="#DejaVuSans-69" transform="translate(1358.740234 0)"/>
     <use xlink:href="#DejaVuSans-64" transform="translate(1386.523438 0)"/>
     <use xlink:href="#DejaVuSans-65" transform="translate(1450 0)"/>
     <use xlink:href="#DejaVuSans-6e" transform="translate(1511.523438 0)"/>
     <use xlink:href="#DejaVuSans-74" transform="translate(1574.902344 0)"/>
     <use xlink:href="#DejaVuSans-69" transform="translate(1614.111328 0)"/>
     <use xlink:href="#DejaVuSans-66" transform="translate(1641.894531 0)"/>
     <use xlink:href="#DejaVuSans-79" transform="translate(1675.349609 0)"/>
     <use xlink:href="#DejaVuSans-20" transform="translate(1734.529297 0)"/>
     <use xlink:href="#DejaVuSans-65" transform="translate(1766.316406 0)"/>
     <use xlink:href="#DejaVuSans-6e" transform="translate(1827.839844 0)"/>
     <use xlink:href="#DejaVuSans-74" transform="translate(1891.21875 0)"/>
     <use xlink:href="#DejaVuSans-72" transform="translate(1930.427734 0)"/>
     <use xlink:href="#DejaVuSans-6f" transform="translate(1969.291016 0)"/>
     <use xlink:href="#DejaVuSans-70" transform="translate(2030.472656 0)"/>
     <use xlink:href="#DejaVuSans-79" transform="translate(2093.949219 0)"/>
     <use xlink:href="#DejaVuSans-20" transform="translate(2153.128906 0)"/>
     <use xlink:href="#DejaVuSans-70" transform="translate(2184.916016 0)"/>
     <use xlink:href="#DejaVuSans-68" transform="translate(2248.392578 0)"/>
     <use xlink:href="#DejaVuSans-61" transform="translate(2311.771484 0)"/>
     <use xlink:href="#DejaVuSans-73" transform="translate(2373.050781 0)"/>
     <use xlink:href="#DejaVuSans-65" transform="translate(2425.150391 0)"/>
     <use xlink:href="#DejaVuSans-73" transform="translate(2486.673828 0)"/>
     <use xlink:href="#DejaVuSans-2c" transform="translate(2538.773438 0)"/>
     <use xlink:href="#DejaVuSans-20" transform="translate(2570.560547 0)"/>
     <use xlink:href="#DejaVuSans-74" transform="translate(2602.347656 0)"/>
     <use xlink:href="#DejaVuSans-72" transform="translate(2641.556641 0)"/>
     <use xlink:href="#DejaVuSans-61" transform="translate(2682.669922 0)"/>
     <use xlink:href="#DejaVuSans-6e" transform="translate(2743.949219 0)"/>
     <use xlink:href="#DejaVuSans-73" transform="translate(2807.328125 0)"/>
     <use xlink:href="#DejaVuSans-69" transform="translate(2859.427734 0)"/>
     <use xlink:href="#DejaVuSans-74" transform="translate(2887.210938 0)"/>
     <use xlink:href="#DejaVuSans-69" transform="translate(2926.419922 0)"/>
     <use xlink:href="#DejaVuSans-6f" transform="translate(2954.203125 0)"/>
     <use xlink:href="#DejaVuSans-6e" transform="translate(3015.384766 0)"/>
     <use xlink:href="#DejaVuSans-20" transform="translate(3078.763672 0)"/>
     <use xlink:href="#DejaVuSans-62" transform="translate(3110.550781 0)"/>
     <use xlink:href="#DejaVuSans-6f" transform="translate(3174.027344 0)"/>
     <use xlink:href="#DejaVuSans-75" transform="translate(3235.208984 0)"/>
     <use xlink:href="#DejaVuSans-6e" transform="translate(3298.587891 0)"/>
     <use xlink:href="#DejaVuSans-64" transform="translate(3361.966797 0)"/>
     <use xlink:href="#DejaVuSans-61" transform="translate(3425.443359 0)"/>
     <use xlink:href="#DejaVuSans-72" transform="translate(3486.722656 0)"/>
     <use xlink:href="#DejaVuSans-69" transform="translate(3527.835938 0)"/>
     <use xlink:href="#DejaVuSans-65" transform="translate(3555.619141 0)"/>
     <use xlink:href="#DejaVuSans-73" transform="translate(3617.142578 0)"/>
     <use xlink:href="#DejaVuSans-2c" transform="translate(3669.242188 0)"/>
     <use xlink:href="#DejaVuSans-20" transform="translate(3701.029297 0)"/>
     <use xlink:href="#DejaVuSans-61" transform="translate(3732.816406 0)"/>
     <use xlink:href="#DejaVuSans-6e" transform="translate(3794.095703 0)"/>
     <use xlink:href="#DejaVuSans-64" transform="translate(3857.474609 0)"/>
     <use xlink:href="#DejaVuSans-20" transform="translate(3920.951172 0)"/>
     <use xlink:href="#DejaVuSans-63" transform="translate(3952.738281 0)"/>
     <use xlink:href="#DejaVuSans-6f" transform="translate(4007.71875 0)"/>
     <use xlink:href="#DejaVuSans-6c" transform="translate(4068.900391 0)"/>
     <use xlink:href="#DejaVuSans-6c" transform="translate(4096.683594 0)"/>
     <use xlink:href="#DejaVuSans-61" transform="translate(4124.466797 0)"/>
     <use xlink:href="#DejaVuSans-70" transform="translate(4185.746094 0)"/>
     <use xlink:href="#DejaVuSans-73" transform="translate(4249.222656 0)"/>
     <use xlink:href="#DejaVuSans-65" transform="translate(4301.322266 0)"/>
     <use xlink:href="#DejaVuSans-20" transform="translate(4362.845703 0)"/>
     <use xlink:href="#DejaVuSans-67" transform="translate(4394.632812 0)"/>
     <use xlink:href="#DejaVuSans-65" transform="translate(4458.109375 0)"/>
     <use xlink:href="#DejaVuSans-6f" transform="translate(4519.632812 0)"/>
     <use xlink:href="#DejaVuSans-6d" transform="translate(4580.814453 0)"/>
     <use xlink:href="#DejaVuSans-65" transform="translate(4678.226562 0)"/>
     <use xlink:href="#DejaVuSans-74" transform="translate(4739.75 0)"/>
     <use xlink:href="#DejaVuSans-72" transform="translate(4778.958984 0)"/>
     <use xlink:href="#DejaVuSans-79" transform="translate(4820.072266 0)"/>
     <use xlink:href="#DejaVuSans-2e" transform="translate(4865.001953 0)"/>
    </g>
   </g>
  </g>
 </g>
 <defs>
  <clipPath id="p2026175c4b">
   <rect x="7.2" y="7.2" width="781.2" height="471.24"/>
  </clipPath>
 </defs>
</svg>
